<?xml version="1.0" encoding="UTF-8"?> <svg xmlns="http://www.w3.org/2000/svg" id="surgery-tools" height="512" viewBox="0 0 300 300" width="512"><g><circle cx="145" cy="154.001" fill="#e5efef" r="86"></circle><circle cx="167" cy="244.001" fill="#4c241d" r="4"></circle><circle cx="135" cy="232.001" fill="#4c241d" r="4"></circle><path d="m223.57 54.69c-2.004 0-3.988-.494-5.805-1.465-2.906-1.555-5.031-4.146-5.988-7.301s-.625-6.492.93-9.398 4.148-5.033 7.301-5.988c3.152-.961 6.488-.629 9.398.928 2.906 1.555 5.031 4.146 5.988 7.301.957 3.154.625 6.492-.926 9.398-1.555 2.906-4.148 5.033-7.305 5.988-1.183.36-2.39.537-3.593.537zm.024-16.685c-.426 0-.848.062-1.266.189-1.109.336-2.02 1.084-2.566 2.105s-.664 2.195-.328 3.305c.695 2.291 3.137 3.578 5.41 2.893 1.109-.336 2.023-1.084 2.57-2.105s.66-2.195.324-3.305-1.086-2.02-2.105-2.566c-.641-.342-1.336-.516-2.039-.516z" fill="#4c241d"></path><g><path d="m235 182.001c-17.645 0-32-14.355-32-32s14.355-32 32-32 32 14.355 32 32-14.355 32-32 32zm0-52c-11.027 0-20 8.973-20 20s8.973 20 20 20 20-8.973 20-20-8.973-20-20-20z" fill="#b5a19c"></path><path d="m235 186.001c-19.852 0-36-16.15-36-36s16.148-36 36-36 36 16.15 36 36-16.148 36-36 36zm0-64c-15.438 0-28 12.561-28 28s12.562 28 28 28 28-12.561 28-28-12.562-28-28-28zm0 52c-13.234 0-24-10.766-24-24s10.766-24 24-24 24 10.766 24 24-10.766 24-24 24zm0-40c-8.824 0-16 7.178-16 16s7.176 16 16 16 16-7.178 16-16-7.176-16-16-16z" fill="#4c241d"></path></g><g><path d="m237 266.001c-17.645 0-32-14.355-32-32s14.355-32 32-32 32 14.355 32 32-14.355 32-32 32zm0-52c-11.027 0-20 8.973-20 20s8.973 20 20 20 20-8.973 20-20-8.973-20-20-20z" fill="#b5a19c"></path><path d="m237 270.001c-19.852 0-36-16.15-36-36s16.148-36 36-36 36 16.15 36 36-16.148 36-36 36zm0-64c-15.438 0-28 12.561-28 28s12.562 28 28 28 28-12.561 28-28-12.562-28-28-28zm0 52c-13.234 0-24-10.766-24-24s10.766-24 24-24 24 10.766 24 24-10.766 24-24 24zm0-40c-8.824 0-16 7.178-16 16s7.176 16 16 16 16-7.178 16-16-7.176-16-16-16z" fill="#4c241d"></path></g><g fill="#4c241d"><path d="m107 128.001c-2.209 0-4-1.791-4-4v-8c0-2.209 1.791-4 4-4s4 1.791 4 4v8c0 2.209-1.791 4-4 4z"></path><path d="m107 152.001c-2.209 0-4-1.791-4-4v-8c0-2.209 1.791-4 4-4s4 1.791 4 4v8c0 2.209-1.791 4-4 4z"></path><path d="m99 136.001h-8c-2.209 0-4-1.791-4-4s1.791-4 4-4h8c2.209 0 4 1.791 4 4s-1.791 4-4 4z"></path><path d="m123 136.001h-8c-2.209 0-4-1.791-4-4s1.791-4 4-4h8c2.209 0 4 1.791 4 4s-1.791 4-4 4z"></path></g><g><path d="m75 212.001h184c0-11.046-8.954-20-20-20h-168.638z" fill="#fff"></path><path d="m259 216.001h-184c-1.861 0-3.477-1.283-3.896-3.096l-4.639-20c-.275-1.189.006-2.438.766-3.393.758-.955 1.91-1.512 3.131-1.512h168.638c13.234 0 24 10.766 24 24 0 2.21-1.789 4.001-4 4.001zm-180.822-8h176.314c-1.777-6.893-8.051-12-15.492-12h-163.605z" fill="#4c241d"></path></g><g><path d="m183 92.001h84c0-11.046-8.954-20-20-20h-64z" fill="#eaeaea"></path><path d="m267 96.001h-84c-2.211 0-4-1.791-4-4v-20c0-2.209 1.789-4 4-4h64c13.234 0 24 10.766 24 24 0 2.209-1.789 4-4 4zm-80-8h75.492c-1.777-6.893-8.051-12-15.492-12h-60z" fill="#4c241d"></path></g><g><path d="m71 172.001c-11.046 0-40 20-40 20s28.954 20 40 20h36l16-20h116c11.046 0 20-8.954 20-20z" fill="#eaeaea"></path><path d="m107 216.001h-36c-11.947 0-39.205-18.59-42.273-20.709-1.082-.746-1.727-1.977-1.727-3.291s.645-2.545 1.727-3.291c3.068-2.119 30.326-20.709 42.273-20.709h188c2.211 0 4 1.791 4 4 0 13.234-10.766 24-24 24h-114.078l-14.799 18.498c-.758.949-1.908 1.502-3.123 1.502zm-68.805-24c11.096 7.205 26.656 16 32.805 16h34.078l14.799-18.498c.758-.949 1.908-1.502 3.123-1.502h116c7.441 0 13.715-5.107 15.492-12h-183.492c-6.148 0-21.709 8.795-32.805 16z" fill="#4c241d"></path></g><g><circle cx="87" cy="192.001" fill="#e7d1c4" r="8"></circle><path d="m87 204.001c-6.617 0-12-5.383-12-12s5.383-12 12-12 12 5.383 12 12-5.383 12-12 12zm0-16c-2.205 0-4 1.795-4 4s1.795 4 4 4 4-1.795 4-4-1.795-4-4-4z" fill="#4c241d"></path></g><g><path d="m49 100.001h134v-36h-134c-9.941 0-18 8.059-18 18 0 9.941 8.059 18 18 18z" fill="#b5a19c"></path><path d="m183 104.001h-134c-12.131 0-22-9.869-22-22s9.869-22 22-22h134c2.211 0 4 1.791 4 4v36c0 2.209-1.789 4-4 4zm-134-36c-7.719 0-14 6.281-14 14s6.281 14 14 14h130v-28z" fill="#4c241d"></path></g><path d="m131 84.001c-2.209 0-4-1.791-4-4v-12c0-2.209 1.791-4 4-4s4 1.791 4 4v12c0 2.209-1.791 4-4 4z" fill="#4c241d"></path><path d="m143 84.001c-2.211 0-4-1.791-4-4v-12c0-2.209 1.789-4 4-4s4 1.791 4 4v12c0 2.209-1.789 4-4 4z" fill="#4c241d"></path><path d="m155 84.001c-2.211 0-4-1.791-4-4v-12c0-2.209 1.789-4 4-4s4 1.791 4 4v12c0 2.209-1.789 4-4 4z" fill="#4c241d"></path></g></svg> 