<?xml version="1.0" encoding="UTF-8"?> <svg xmlns="http://www.w3.org/2000/svg" height="512" viewBox="0 0 64 64" width="512"><g fill="#93999a"><path d="m46 55a1 1 0 0 1 -1-1v-13a1 1 0 0 1 2 0v13a1 1 0 0 1 -1 1z"></path><path d="m51 59a1 1 0 0 1 -1-1v-3h-8v3a1 1 0 0 1 -2 0v-4a1 1 0 0 1 1-1h10a1 1 0 0 1 1 1v4a1 1 0 0 1 -1 1z"></path><path d="m46 30a1 1 0 0 1 -1-1v-25a1 1 0 0 1 2 0v25a1 1 0 0 1 -1 1z"></path></g><path d="m22 41h-.17a1 1 0 0 1 0-2h.17a14 14 0 0 0 14-14v-6a1 1 0 0 1 2 0v6a16 16 0 0 1 -16 16z" fill="#c4f236"></path><path d="m55 12a1 1 0 0 1 -1-1v-3h-16v3a1 1 0 0 1 -2 0v-4a1 1 0 0 1 1-1h18a1 1 0 0 1 1 1v4a1 1 0 0 1 -1 1z" fill="#93999a"></path><path d="m60 51h-1a4 4 0 0 1 -4-4v-7a2 2 0 0 0 -2-2h-1a1 1 0 0 1 0-2h1a4 4 0 0 1 4 4v7a2 2 0 0 0 2 2h1a1 1 0 0 1 0 2z" fill="#4891d3"></path><path d="m60 56h-.39a9.6 9.6 0 0 1 -9.61-9.61v-5.39a1 1 0 0 1 2 0v5.39a7.62 7.62 0 0 0 7.61 7.61h.39a1 1 0 0 1 0 2z" fill="#4891d3"></path><path d="m40 29h12v12h-12z" fill="#fcbc04"></path><path d="m40 29h12v4h-12z" fill="#57b7eb"></path><circle cx="41" cy="59" fill="#d0d8da" r="2"></circle><circle cx="51" cy="59" fill="#d0d8da" r="2"></circle><path d="m34 11h6v8h-6z" fill="#d0d8da"></path><path d="m34 15h6v4h-6z" fill="#c4f236"></path><path d="m40 33h8v8h-8z" fill="#d0d8da"></path><path d="m52 29h9v5h-9z" fill="#93999a"></path><path d="m43 29h-3v4h12v-2h-7a2 2 0 0 1 -2-2z" fill="#4891d3"></path><path d="m46 39a4 4 0 0 1 -4-4v-2h-2v8h8v-2z" fill="#93999a"></path><path d="m52 29h9v2h-9z" fill="#d0d8da"></path><path d="m48 33h4v6h-4z" fill="#f9e109"></path><circle cx="51" cy="59" fill="#93999a" r="1"></circle><circle cx="41" cy="59" fill="#93999a" r="1"></circle><path d="m34 11h3v4h-3z" fill="#93999a"></path><path d="m37 15h-3v4h6v-1a3 3 0 0 1 -3-3z" fill="#a1d51c"></path><path d="m40 36h4a1 1 0 0 1 0 2h-4z" fill="#57b7eb"></path><path d="m42.14 36h-2.14v2h3.38a4 4 0 0 1 -1.24-2z" fill="#4891d3"></path><path d="m45 41h2v2h-2z" fill="#656b76"></path><path d="m45 8h2v2h-2z" fill="#656b76"></path><path d="m13 29h4v4h-4z" fill="#e59730"></path><path d="m15 29h2v4h-2z" fill="#fcbc04"></path><path d="m5 31h4a2 2 0 0 1 2 2v24a0 0 0 0 1 0 0h-8a0 0 0 0 1 0 0v-24a2 2 0 0 1 2-2z" fill="#a1d51c"></path><path d="m11 43h15a2 2 0 0 1 2 2v12a0 0 0 0 1 0 0h-17a0 0 0 0 1 0 0v-14a0 0 0 0 1 0 0z" fill="#a1d51c"></path><circle cx="7" cy="59" fill="#d0d8da" r="2"></circle><circle cx="25" cy="59" fill="#d0d8da" r="2"></circle><path d="m15 31a4 4 0 0 1 4 4v8a0 0 0 0 1 0 0h-8a0 0 0 0 1 0 0v-8a4 4 0 0 1 4-4z" fill="#fcbc04"></path><path d="m15 37v-6a4 4 0 0 0 -4 4v8h8v-.35a6 6 0 0 1 -4-5.65z" fill="#e59730"></path><path d="m15 35v5a3 3 0 0 0 3 3h5a2 2 0 0 0 2-2 2 2 0 0 0 -2-2h-4v-4a2 2 0 0 0 -2-2 2 2 0 0 0 -2 2z" fill="#f9e109"></path><path d="m17 39v-6a2 2 0 0 0 -2 2v5a3 3 0 0 0 3 3h5a2 2 0 0 0 2-2h-6a2 2 0 0 1 -2-2z" fill="#fcbc04"></path><circle cx="15" cy="27" fill="#f9e109" r="4"></circle><path d="m34 53h-2v-4a4 4 0 0 0 -4-4v12h8v-2a2 2 0 0 0 -2-2z" fill="#f9e109"></path><path d="m26 43h-15v-10a2 2 0 0 0 -2-2h-2v12a4 4 0 0 0 4 4h17v-2a2 2 0 0 0 -2-2z" fill="#c4f236"></path><path d="m18 29a4 4 0 0 1 -4-4 3.93 3.93 0 0 1 .53-1.95 4 4 0 1 0 3.94 5.95 3.75 3.75 0 0 1 -.47 0z" fill="#fcbc04"></path><path d="m32 55a2 2 0 0 1 -2-2v-4a2 2 0 0 0 -2-2v10h8v-2z" fill="#fcbc04"></path><circle cx="7" cy="59" fill="#93999a" r="1"></circle><circle cx="25" cy="59" fill="#93999a" r="1"></circle></svg> 