<?xml version="1.0" encoding="UTF-8"?> <svg xmlns="http://www.w3.org/2000/svg" height="512" viewBox="0 0 58 58" width="512"><g id="036---Hydrotherapy" fill="none"><path id="Shape" d="m52 22.091c0 7.682-6.716 13.909-15 13.909s-15-6.227-15-13.909 15-22.091 15-22.091 15 14.409 15 22.091z" fill="#2980ba"></path><path id="Shape" d="m49.3 18.114c0 6.3-5.506 11.4-12.3 11.4s-12.3-5.107-12.3-11.4 12.3-18.114 12.3-18.114 12.3 11.815 12.3 18.114z" fill="#3b97d3"></path><path id="Shape" d="m45 21v2c0 .5522847-.4477153 1-1 1h-4c-.5522847 0-1 .4477153-1 1v4c0 .5522847-.4477153 1-1 1h-2c-.5522847 0-1-.4477153-1-1v-4c0-.5522847-.4477153-1-1-1h-4c-.5522847 0-1-.4477153-1-1v-2c0-.5522847.4477153-1 1-1h4c.5522847 0 1-.4477153 1-1v-4c0-.5522847.4477153-1 1-1h2c.5522847 0 1 .4477153 1 1v4c0 .5522847.4477153 1 1 1h4c.5522847 0 1 .4477153 1 1z" fill="#ecf0f1"></path><path id="Shape" d="m56.68 44.57-18.74 11.41c-1.0968305.667384-2.3560847 1.020252-3.64 1.02l-26.8.0000001v-22.0000001h4.3c2.0715011.0028959 4.0808416.7079276 5.7 2s3.6284989 1.9971041 5.7 2h5.23c3.835 0 6.465 4.365 3.83 7 2.223 0 2.792.073 3.62-.21l18.51-6.17c1.120338-.3678364 2.3505552.0181141 3.06.96v.01c.4649441.6171961.6465512 1.4025179.4997758 2.1611752s-.608183 1.4195768-1.2697758 1.8188248z" fill="#fdd7ad"></path><path id="Shape" d="m33.27 43.9999954c-.1123578.7580882-.4666159 1.4595893-1.01 2.0000046h-6.54c-1.5768467-.0023226-3.1188029.464093-4.43 1.34l-.74.49c-.1610128.1128533-.3533896.1723152-.55.17-.4385565-.0033853-.8237305-.292132-.9499631-.7121422-.1262326-.4200103.0359373-.8732592.3999631-1.1178578l.73-.49c1.6391564-1.0970978 3.5675767-1.6818895 5.54-1.68z" fill="#f9c795"></path><rect id="Rectangle-path" fill="#3b97d3" height="25" rx="2" width="9" y="33"></rect></g></svg> 