<svg width="486" height="520" viewBox="0 0 486 520" fill="none" xmlns="http://www.w3.org/2000/svg">
<g clip-path="url(#clip0_865_5573)">
<g clip-path="url(#clip1_865_5573)">
<path d="M81 -1H487V402C487 405.314 484.314 408 481 408H87C83.6863 408 81 405.314 81 402V-1Z" fill="white"/>
<rect width="406" height="44" transform="translate(81 364)" fill="#F8F9FA"/>
<mask id="mask0_865_5573" style="mask-type:luminance" maskUnits="userSpaceOnUse" x="276" y="378" width="16" height="16">
<path fill-rule="evenodd" clip-rule="evenodd" d="M277.693 381.285V390.674L283.701 386.359L285.188 387.402L277.329 393.046L276.361 393.741L276 394V393.548V392.338V379.643V378.446V378L276.359 378.252L277.322 378.928C280.959 381.478 284.595 384.029 288.231 386.58L290.308 388.036V383.723L287.833 385.503C287.337 385.156 286.842 384.808 286.346 384.46L290.671 381.352L291.639 380.657L292 380.397V380.849V382.06V389.679V390.875V391.321L291.641 391.069L290.678 390.394C286.349 387.358 282.021 384.322 277.693 381.285" fill="white"/>
</mask>
<g mask="url(#mask0_865_5573)">
<path fill-rule="evenodd" clip-rule="evenodd" d="M277.693 381.285V385.251C277.693 387.517 280.257 388.833 282.097 387.511L283.207 386.714C283.503 386.501 283.901 386.499 284.199 386.708V386.708C284.682 387.047 284.686 387.762 284.207 388.106L277.329 393.046L276.361 393.741V393.741C276.21 393.849 276 393.741 276 393.555V393.548V392.338V379.643V378.446V378.439C276 378.254 276.208 378.146 276.359 378.252V378.252L277.322 378.928C280.959 381.478 284.595 384.029 288.231 386.58L288.555 386.807C289.293 387.324 290.308 386.796 290.308 385.895V385.895C290.308 384.988 289.281 384.462 288.544 384.991L288.327 385.148C288.031 385.36 287.633 385.363 287.334 385.154V385.154C286.851 384.815 286.847 384.1 287.327 383.756L290.671 381.352L291.639 380.657V380.657C291.79 380.548 292 380.656 292 380.842V380.849V382.06V389.679V390.875V390.882C292 391.067 291.792 391.175 291.641 391.069V391.069L290.678 390.394C286.349 387.358 282.021 384.322 277.693 381.285" fill="#C1C8CD"/>
</g>
<g clip-path="url(#clip2_865_5573)">
<rect x="93" y="304" width="368" height="40" rx="6" fill="white"/>
<path d="M102.886 330H101.409L105.682 318.364H107.136L111.409 330H109.932L106.455 320.205H106.364L102.886 330ZM103.432 325.455H109.386V326.705H103.432V325.455ZM119.222 323.227L118.017 323.568C117.941 323.367 117.83 323.172 117.682 322.983C117.538 322.79 117.341 322.631 117.091 322.506C116.841 322.381 116.521 322.318 116.131 322.318C115.597 322.318 115.152 322.441 114.795 322.688C114.443 322.93 114.267 323.239 114.267 323.614C114.267 323.947 114.388 324.21 114.631 324.403C114.873 324.597 115.252 324.758 115.767 324.886L117.062 325.205C117.843 325.394 118.424 325.684 118.807 326.074C119.189 326.46 119.381 326.958 119.381 327.568C119.381 328.068 119.237 328.515 118.949 328.909C118.665 329.303 118.267 329.614 117.756 329.841C117.244 330.068 116.65 330.182 115.972 330.182C115.081 330.182 114.345 329.989 113.761 329.602C113.178 329.216 112.809 328.652 112.653 327.909L113.926 327.591C114.047 328.061 114.277 328.413 114.614 328.648C114.955 328.883 115.4 329 115.949 329C116.574 329 117.07 328.867 117.438 328.602C117.809 328.333 117.994 328.011 117.994 327.636C117.994 327.333 117.888 327.08 117.676 326.875C117.464 326.667 117.138 326.511 116.699 326.409L115.244 326.068C114.445 325.879 113.858 325.585 113.483 325.188C113.112 324.786 112.926 324.284 112.926 323.682C112.926 323.189 113.064 322.754 113.341 322.375C113.621 321.996 114.002 321.699 114.483 321.483C114.968 321.267 115.517 321.159 116.131 321.159C116.994 321.159 117.672 321.348 118.165 321.727C118.661 322.106 119.013 322.606 119.222 323.227ZM122.649 326.818L122.626 325.159H122.899L126.717 321.273H128.376L124.308 325.386H124.195L122.649 326.818ZM121.399 330V318.364H122.74V330H121.399ZM126.945 330L123.536 325.682L124.49 324.75L128.649 330H126.945ZM137.17 330.205C136.617 330.205 136.116 330.1 135.665 329.892C135.214 329.68 134.856 329.375 134.591 328.977C134.326 328.576 134.193 328.091 134.193 327.523C134.193 327.023 134.292 326.617 134.489 326.307C134.686 325.992 134.949 325.746 135.278 325.568C135.608 325.39 135.972 325.258 136.369 325.17C136.771 325.08 137.174 325.008 137.58 324.955C138.11 324.886 138.54 324.835 138.869 324.801C139.203 324.763 139.445 324.701 139.597 324.614C139.752 324.527 139.83 324.375 139.83 324.159V324.114C139.83 323.553 139.676 323.117 139.369 322.807C139.066 322.496 138.606 322.341 137.989 322.341C137.348 322.341 136.847 322.481 136.483 322.761C136.119 323.042 135.864 323.341 135.716 323.659L134.443 323.205C134.67 322.674 134.973 322.261 135.352 321.966C135.735 321.667 136.152 321.458 136.602 321.341C137.057 321.22 137.504 321.159 137.943 321.159C138.223 321.159 138.545 321.193 138.909 321.261C139.277 321.326 139.631 321.46 139.972 321.665C140.316 321.869 140.602 322.178 140.83 322.591C141.057 323.004 141.17 323.557 141.17 324.25V330H139.83V328.818H139.761C139.67 329.008 139.519 329.21 139.307 329.426C139.095 329.642 138.813 329.826 138.46 329.977C138.108 330.129 137.678 330.205 137.17 330.205ZM137.375 329C137.905 329 138.352 328.896 138.716 328.688C139.083 328.479 139.36 328.21 139.545 327.881C139.735 327.551 139.83 327.205 139.83 326.841V325.614C139.773 325.682 139.648 325.744 139.455 325.801C139.265 325.854 139.045 325.902 138.795 325.943C138.549 325.981 138.309 326.015 138.074 326.045C137.843 326.072 137.655 326.095 137.511 326.114C137.163 326.159 136.837 326.233 136.534 326.335C136.235 326.434 135.992 326.583 135.807 326.784C135.625 326.981 135.534 327.25 135.534 327.591C135.534 328.057 135.706 328.409 136.051 328.648C136.4 328.883 136.841 329 137.375 329ZM144.959 324.75V330H143.618V321.273H144.913V322.636H145.027C145.232 322.193 145.542 321.837 145.959 321.568C146.375 321.295 146.913 321.159 147.572 321.159C148.163 321.159 148.68 321.28 149.124 321.523C149.567 321.761 149.911 322.125 150.158 322.614C150.404 323.098 150.527 323.712 150.527 324.455V330H149.186V324.545C149.186 323.86 149.008 323.326 148.652 322.943C148.296 322.557 147.807 322.364 147.186 322.364C146.758 322.364 146.375 322.456 146.038 322.642C145.705 322.828 145.442 323.098 145.249 323.455C145.055 323.811 144.959 324.242 144.959 324.75ZM153.528 333.273C153.301 333.273 153.098 333.254 152.92 333.216C152.742 333.182 152.619 333.148 152.551 333.114L152.892 331.932C153.218 332.015 153.506 332.045 153.756 332.023C154.006 332 154.227 331.888 154.42 331.688C154.617 331.491 154.797 331.17 154.96 330.727L155.21 330.045L151.983 321.273H153.438L155.847 328.227H155.938L158.347 321.273H159.801L156.097 331.273C155.93 331.723 155.723 332.097 155.477 332.392C155.231 332.691 154.945 332.913 154.619 333.057C154.297 333.201 153.934 333.273 153.528 333.273ZM165.366 321.273V322.409H160.844V321.273H165.366ZM162.162 319.182H163.503V327.5C163.503 327.879 163.558 328.163 163.668 328.352C163.781 328.538 163.925 328.663 164.099 328.727C164.277 328.788 164.465 328.818 164.662 328.818C164.81 328.818 164.931 328.811 165.026 328.795C165.12 328.777 165.196 328.761 165.253 328.75L165.526 329.955C165.435 329.989 165.308 330.023 165.145 330.057C164.982 330.095 164.776 330.114 164.526 330.114C164.147 330.114 163.776 330.032 163.412 329.869C163.052 329.706 162.753 329.458 162.514 329.125C162.279 328.792 162.162 328.371 162.162 327.864V319.182ZM168.912 324.75V330H167.571V318.364H168.912V322.636H169.026C169.23 322.186 169.537 321.828 169.946 321.562C170.359 321.294 170.908 321.159 171.594 321.159C172.188 321.159 172.709 321.278 173.156 321.517C173.603 321.752 173.95 322.114 174.196 322.602C174.446 323.087 174.571 323.705 174.571 324.455V330H173.23V324.545C173.23 323.852 173.05 323.316 172.69 322.938C172.334 322.555 171.84 322.364 171.207 322.364C170.768 322.364 170.374 322.456 170.026 322.642C169.681 322.828 169.408 323.098 169.207 323.455C169.01 323.811 168.912 324.242 168.912 324.75ZM177.024 330V321.273H178.365V330H177.024ZM177.706 319.818C177.445 319.818 177.219 319.729 177.03 319.551C176.844 319.373 176.751 319.159 176.751 318.909C176.751 318.659 176.844 318.445 177.03 318.267C177.219 318.089 177.445 318 177.706 318C177.967 318 178.191 318.089 178.376 318.267C178.566 318.445 178.661 318.659 178.661 318.909C178.661 319.159 178.566 319.373 178.376 319.551C178.191 319.729 177.967 319.818 177.706 319.818ZM182.162 324.75V330H180.821V321.273H182.116V322.636H182.23C182.435 322.193 182.745 321.837 183.162 321.568C183.579 321.295 184.116 321.159 184.776 321.159C185.366 321.159 185.884 321.28 186.327 321.523C186.77 321.761 187.115 322.125 187.361 322.614C187.607 323.098 187.73 323.712 187.73 324.455V330H186.389V324.545C186.389 323.86 186.211 323.326 185.855 322.943C185.499 322.557 185.01 322.364 184.389 322.364C183.961 322.364 183.579 322.456 183.241 322.642C182.908 322.828 182.645 323.098 182.452 323.455C182.259 323.811 182.162 324.242 182.162 324.75ZM193.703 333.455C193.055 333.455 192.499 333.371 192.033 333.205C191.567 333.042 191.179 332.826 190.868 332.557C190.561 332.292 190.317 332.008 190.135 331.705L191.203 330.955C191.324 331.114 191.478 331.295 191.663 331.5C191.849 331.708 192.103 331.888 192.425 332.04C192.75 332.195 193.177 332.273 193.703 332.273C194.408 332.273 194.989 332.102 195.447 331.761C195.906 331.42 196.135 330.886 196.135 330.159V328.386H196.021C195.923 328.545 195.783 328.742 195.601 328.977C195.423 329.208 195.165 329.415 194.828 329.597C194.495 329.775 194.044 329.864 193.476 329.864C192.771 329.864 192.139 329.697 191.578 329.364C191.021 329.03 190.58 328.545 190.254 327.909C189.932 327.273 189.771 326.5 189.771 325.591C189.771 324.697 189.929 323.919 190.243 323.256C190.557 322.589 190.995 322.074 191.555 321.71C192.116 321.343 192.764 321.159 193.499 321.159C194.067 321.159 194.518 321.254 194.851 321.443C195.188 321.629 195.446 321.841 195.624 322.08C195.805 322.314 195.946 322.508 196.044 322.659H196.18V321.273H197.476V330.25C197.476 331 197.305 331.61 196.964 332.08C196.627 332.553 196.173 332.9 195.601 333.119C195.033 333.343 194.4 333.455 193.703 333.455ZM193.658 328.659C194.196 328.659 194.65 328.536 195.021 328.29C195.393 328.044 195.675 327.689 195.868 327.227C196.061 326.765 196.158 326.212 196.158 325.568C196.158 324.939 196.063 324.384 195.874 323.903C195.684 323.422 195.404 323.045 195.033 322.773C194.661 322.5 194.203 322.364 193.658 322.364C193.089 322.364 192.616 322.508 192.237 322.795C191.862 323.083 191.58 323.47 191.391 323.955C191.205 324.439 191.112 324.977 191.112 325.568C191.112 326.174 191.207 326.71 191.396 327.176C191.589 327.638 191.874 328.002 192.249 328.267C192.627 328.528 193.097 328.659 193.658 328.659Z" fill="#889096"/>
<rect x="429" y="312" width="24" height="24" rx="4" fill="#11181C"/>
<path d="M445.833 318.167L439.417 324.583" stroke="white" stroke-width="1.4" stroke-linecap="round" stroke-linejoin="round"/>
<path d="M445.833 318.167L441.75 329.833L439.417 324.583L434.167 322.25L445.833 318.167Z" stroke="white" stroke-width="1.4" stroke-linecap="round" stroke-linejoin="round"/>
<path d="M413 319.333V328.667" stroke="#889096" stroke-width="1.4" stroke-linecap="round" stroke-linejoin="round"/>
<path d="M408.333 324H417.667" stroke="#889096" stroke-width="1.4" stroke-linecap="round" stroke-linejoin="round"/>
</g>
<rect x="93.5" y="304.5" width="367" height="39" rx="5.5" stroke="#E8E8E8"/>
<rect x="309" y="151" width="128" height="40" rx="8" fill="#FAFAFB"/>
<path d="M331 169.667L334.333 173L331 176.333" stroke="#889096" stroke-width="1.33333" stroke-linecap="round" stroke-linejoin="round"/>
<path d="M323.667 165.667V170.333C323.667 171.041 323.947 171.719 324.448 172.219C324.948 172.719 325.626 173 326.333 173H334.333" stroke="#889096" stroke-width="1.33333" stroke-linecap="round" stroke-linejoin="round"/>
<rect x="349" y="161" width="72" height="20" rx="2" fill="#E2E4E6"/>
<rect x="149" y="151" width="152" height="40" rx="8" fill="#FAFAFB"/>
<path d="M171 169.667L174.333 173L171 176.333" stroke="#889096" stroke-width="1.33333" stroke-linecap="round" stroke-linejoin="round"/>
<path d="M163.667 165.667V170.333C163.667 171.041 163.947 171.719 164.448 172.219C164.948 172.719 165.626 173 166.333 173H174.333" stroke="#889096" stroke-width="1.33333" stroke-linecap="round" stroke-linejoin="round"/>
<rect x="189" y="161" width="96" height="20" rx="2" fill="#E2E4E6"/>
<rect x="149" y="199" width="264" height="40" rx="8" fill="#FAFAFB"/>
<path d="M171 217.667L174.333 221L171 224.333" stroke="#889096" stroke-width="1.33333" stroke-linecap="round" stroke-linejoin="round"/>
<path d="M163.667 213.667V218.333C163.667 219.041 163.947 219.719 164.448 220.219C164.948 220.719 165.626 221 166.333 221H174.333" stroke="#889096" stroke-width="1.33333" stroke-linecap="round" stroke-linejoin="round"/>
<rect x="221" y="209" width="144" height="20" rx="2" fill="#E2E4E6"/>
<rect x="189" y="209" width="24" height="20" rx="2" fill="#E2E4E6"/>
<rect x="395" y="18" width="32" height="32" rx="4" fill="#FAFAFB"/>
<path d="M407.667 40.3333H405.667C405.313 40.3333 404.974 40.1929 404.724 39.9428C404.474 39.6928 404.333 39.3536 404.333 39V34.3333C404.333 33.9797 404.474 33.6406 404.724 33.3905C404.974 33.1405 405.313 33 405.667 33H407.667M412.333 31.6667V29C412.333 28.4696 412.123 27.9609 411.748 27.5858C411.373 27.2107 410.864 27 410.333 27L407.667 33V40.3333H415.187C415.508 40.337 415.82 40.2243 416.065 40.016C416.31 39.8077 416.472 39.5179 416.52 39.2L417.44 33.2C417.469 33.0089 417.456 32.8138 417.402 32.6282C417.349 32.4425 417.255 32.2709 417.128 32.125C417.001 31.9792 416.844 31.8626 416.668 31.7835C416.492 31.7043 416.3 31.6645 416.107 31.6667H412.333Z" stroke="#889096" stroke-width="1.4" stroke-linecap="round" stroke-linejoin="round"/>
<rect x="435" y="18" width="32" height="32" rx="4" fill="white"/>
<path d="M447.667 27.6667H445.667C445.313 27.6667 444.974 27.8071 444.724 28.0572C444.474 28.3072 444.333 28.6464 444.333 29V33.6667C444.333 34.0203 444.474 34.3594 444.724 34.6095C444.974 34.8595 445.313 35 445.667 35H447.667M452.333 36.3333V39C452.333 39.5304 452.123 40.0391 451.748 40.4142C451.373 40.7893 450.864 41 450.333 41L447.667 35V27.6667H455.187C455.508 27.663 455.82 27.7757 456.065 27.984C456.31 28.1923 456.472 28.4821 456.52 28.8L457.44 34.8C457.469 34.9911 457.456 35.1862 457.402 35.3718C457.349 35.5575 457.255 35.7291 457.128 35.875C457.001 36.0208 456.844 36.1374 456.668 36.2165C456.492 36.2957 456.3 36.3355 456.107 36.3333H452.333Z" stroke="#889096" stroke-width="1.4" stroke-linecap="round" stroke-linejoin="round"/>
<rect x="355" y="18" width="32" height="32" rx="4" fill="white"/>
<path d="M373.667 28.6667H375C375.353 28.6667 375.693 28.8072 375.943 29.0573C376.193 29.3073 376.333 29.6465 376.333 30.0001V39.3334C376.333 39.687 376.193 40.0262 375.943 40.2762C375.693 40.5263 375.353 40.6667 375 40.6667H367C366.646 40.6667 366.307 40.5263 366.057 40.2762C365.807 40.0262 365.667 39.687 365.667 39.3334V30.0001C365.667 29.6465 365.807 29.3073 366.057 29.0573C366.307 28.8072 366.646 28.6667 367 28.6667H368.333" stroke="#889096" stroke-width="1.4" stroke-linecap="round" stroke-linejoin="round"/>
<path d="M373 27.3333H369C368.632 27.3333 368.333 27.6317 368.333 27.9999V29.3333C368.333 29.7014 368.632 29.9999 369 29.9999H373C373.368 29.9999 373.667 29.7014 373.667 29.3333V27.9999C373.667 27.6317 373.368 27.3333 373 27.3333Z" stroke="#889096" stroke-width="1.4" stroke-linecap="round" stroke-linejoin="round"/>
<g clip-path="url(#clip3_865_5573)">
<mask id="mask1_865_5573" style="mask-type:luminance" maskUnits="userSpaceOnUse" x="105" y="23" width="24" height="24">
<path d="M126.333 23H107.667C106.194 23 105 24.1939 105 25.6667V44.3333C105 45.8061 106.194 47 107.667 47H126.333C127.806 47 129 45.8061 129 44.3333V25.6667C129 24.1939 127.806 23 126.333 23Z" fill="white"/>
</mask>
<g mask="url(#mask1_865_5573)">
<path d="M105 32.6C105 29.2397 105 27.5595 105.654 26.2761C106.229 25.1471 107.147 24.2292 108.276 23.654C109.56 23 111.24 23 114.6 23H119.4C122.76 23 124.441 23 125.724 23.654C126.853 24.2292 127.771 25.1471 128.346 26.2761C129 27.5595 129 29.2397 129 32.6V37.4C129 40.7603 129 42.4405 128.346 43.724C127.771 44.8528 126.853 45.7708 125.724 46.346C124.441 47 122.76 47 119.4 47H114.6C111.24 47 109.56 47 108.276 46.346C107.147 45.7708 106.229 44.8528 105.654 43.724C105 42.4405 105 40.7603 105 37.4V32.6Z" fill="url(#paint0_linear_865_5573)"/>
<mask id="mask2_865_5573" style="mask-type:alpha" maskUnits="userSpaceOnUse" x="105" y="23" width="24" height="24">
<path d="M105 32.6C105 29.2397 105 27.5595 105.654 26.2761C106.229 25.1471 107.147 24.2292 108.276 23.654C109.56 23 111.24 23 114.6 23H119.4C122.76 23 124.441 23 125.724 23.654C126.853 24.2292 127.771 25.1471 128.346 26.2761C129 27.5595 129 29.2397 129 32.6V37.4C129 40.7603 129 42.4405 128.346 43.724C127.771 44.8528 126.853 45.7708 125.724 46.346C124.441 47 122.76 47 119.4 47H114.6C111.24 47 109.56 47 108.276 46.346C107.147 45.7708 106.229 44.8528 105.654 43.724C105 42.4405 105 40.7603 105 37.4V32.6Z" fill="url(#paint1_linear_865_5573)"/>
</mask>
<g mask="url(#mask2_865_5573)">
<g filter="url(#filter0_d_865_5573)">
<path d="M124.233 38.8188C123.925 38.6427 123.641 38.4325 123.382 38.1928L123.372 38.183L123.367 38.1782C122.433 37.3077 121.9 36.1291 121.856 34.8526C121.817 33.5762 122.276 32.3634 123.152 31.4391L123.167 31.4195C123.602 30.9501 123.984 30.4415 124.307 29.8937C124.36 29.8057 124.331 29.6883 124.243 29.6345L123.353 29.0917C123.265 29.0379 123.142 29.0672 123.093 29.1553C122.824 29.615 122.501 30.0453 122.134 30.4415C122.125 30.4512 122.12 30.4561 122.11 30.4659C122.11 30.4659 122.11 30.4659 122.105 30.4708C122.105 30.4708 122.105 30.4708 122.1 30.4757C121.102 31.5369 119.83 32.2803 118.426 32.6128C117.937 32.7302 117.428 32.7987 116.92 32.8133C116.323 32.8329 115.785 32.471 115.555 31.9184C115.52 31.8401 115.486 31.757 115.452 31.6787C115.403 31.576 115.491 31.4587 115.604 31.4782C116.019 31.5516 116.45 31.5809 116.885 31.5712C118.544 31.5174 120.08 30.8229 121.21 29.6101L121.225 29.5954C121.533 29.2629 121.802 28.8961 122.032 28.5097C122.086 28.4217 122.056 28.3043 121.968 28.2505L121.078 27.7077C120.985 27.6539 120.868 27.6832 120.814 27.7762C120.638 28.0843 120.427 28.3679 120.183 28.6271L120.168 28.6418C119.297 29.5758 118.118 30.1089 116.841 30.1529C115.569 30.1871 114.356 29.7275 113.427 28.8521L113.417 28.8423L113.412 28.8374C112.942 28.4021 112.434 28.0207 111.886 27.693C111.798 27.6392 111.68 27.6686 111.626 27.7566L111.083 28.6516C111.03 28.7396 111.059 28.8618 111.147 28.9107C111.612 29.1846 112.042 29.5074 112.438 29.8741L112.443 29.879L112.448 29.8839C113.515 30.8816 114.258 32.158 114.601 33.5665C114.718 34.0555 114.787 34.5592 114.801 35.0678C114.801 35.0727 114.801 35.0776 114.801 35.0825C114.821 35.6742 114.454 36.2122 113.906 36.4372C113.828 36.4714 113.745 36.5056 113.666 36.5398C113.564 36.5887 113.446 36.5007 113.466 36.3882C113.539 35.9726 113.569 35.5422 113.559 35.1069C113.51 33.4589 112.82 31.9282 111.612 30.7985C111.602 30.7887 111.592 30.7789 111.577 30.7691C111.245 30.4659 110.883 30.1969 110.496 29.972C110.408 29.9182 110.291 29.9475 110.237 30.0356L109.699 30.9256C109.645 31.0185 109.674 31.1359 109.767 31.1897C110.071 31.3658 110.359 31.576 110.619 31.8157L110.638 31.8303C111.573 32.7008 112.106 33.8794 112.15 35.1559C112.189 36.4323 111.729 37.6402 110.853 38.5694L110.834 38.5889C110.398 39.0584 110.017 39.567 109.694 40.1147C109.64 40.2029 109.67 40.3202 109.758 40.374L110.648 40.9169C110.736 40.9705 110.853 40.9412 110.907 40.8532C111.176 40.3935 111.499 39.9632 111.866 39.567C111.876 39.5573 111.881 39.5524 111.891 39.5426C111.891 39.5426 111.891 39.5426 111.891 39.5377C112.889 38.4765 114.16 37.7331 115.569 37.3957C116.059 37.2783 116.567 37.2098 117.076 37.1952C117.673 37.1756 118.211 37.5375 118.441 38.0901C118.475 38.1684 118.51 38.2515 118.544 38.3298C118.593 38.4325 118.505 38.5498 118.392 38.5303C117.976 38.4569 117.546 38.4276 117.11 38.4373C115.452 38.4911 113.921 39.1856 112.791 40.3935L112.776 40.4082L112.771 40.413C112.463 40.7457 112.194 41.1124 111.964 41.4987C111.91 41.5869 111.939 41.7042 112.028 41.758L112.918 42.3009C113.011 42.3545 113.128 42.3252 113.182 42.2324C113.358 41.9242 113.569 41.6405 113.808 41.3814L113.818 41.3717L113.823 41.3667C114.694 40.4327 115.873 39.8995 117.15 39.8555C118.426 39.8165 119.64 40.2762 120.564 41.1515L120.584 41.1662C121.053 41.6015 121.562 41.9829 122.11 42.3057C122.198 42.3595 122.315 42.3302 122.369 42.2422L122.912 41.352C122.966 41.264 122.937 41.1417 122.849 41.0929C122.384 40.819 121.953 40.4962 121.557 40.1344C121.552 40.1294 121.548 40.1245 121.543 40.1197L121.538 40.1147C120.471 39.1171 119.733 37.8456 119.395 36.4372C119.278 35.9481 119.209 35.4444 119.194 34.9358C119.194 34.9309 119.194 34.926 119.194 34.9211C119.175 34.3294 119.542 33.7914 120.09 33.5665C120.168 33.5322 120.251 33.498 120.329 33.4638C120.432 33.4149 120.55 33.5029 120.53 33.6154C120.457 34.031 120.427 34.4614 120.437 34.8966C120.491 36.5496 121.185 38.0852 122.394 39.2149L122.399 39.2198L122.408 39.2296L122.413 39.2345C122.746 39.5426 123.113 39.8115 123.499 40.0414C123.587 40.0952 123.705 40.0659 123.759 39.9779L124.302 39.0878C124.355 38.99 124.326 38.8726 124.233 38.8188ZM117.037 35.7769C117.027 35.7769 117.017 35.7769 117.008 35.7769C116.587 35.7916 116.24 35.4591 116.23 35.0385C116.23 35.0336 116.23 35.0336 116.23 35.0287C116.23 35.0238 116.23 35.0238 116.23 35.0189C116.215 34.5983 116.548 34.2462 116.969 34.2316C116.973 34.2316 116.973 34.2316 116.978 34.2316C116.983 34.2316 116.983 34.2316 116.988 34.2316C117.409 34.2169 117.761 34.5494 117.776 34.97C117.776 34.9749 117.776 34.9749 117.776 34.9798C117.776 34.9847 117.776 34.9847 117.776 34.9896C117.781 35.4102 117.458 35.7623 117.037 35.7769Z" fill="url(#paint2_linear_865_5573)"/>
</g>
</g>
</g>
</g>
<rect x="149" y="25" width="72" height="20" rx="2" fill="#E2E4E6"/>
<rect x="149" y="53" width="192" height="20" rx="2" fill="#E2E4E6"/>
<rect x="149" y="81" width="152" height="20" rx="2" fill="#E2E4E6"/>
<rect x="149" y="109" width="152" height="20" rx="2" fill="#E2E4E6"/>
</g>
<path d="M81.5 -0.5H486.5V402C486.5 405.038 484.038 407.5 481 407.5H87C83.9624 407.5 81.5 405.038 81.5 402V-0.5Z" stroke="#DFE3E6"/>
<g filter="url(#filter1_d_865_5573)">
<rect x="21" y="209" width="332" height="291" rx="6" fill="white" shape-rendering="crispEdges"/>
<path d="M41 450.5H333" stroke="#E8E8E8"/>
<rect x="41" y="463" width="84" height="12" rx="2" fill="#E2E4E6"/>
<rect x="145" y="463" width="36" height="12" rx="2" fill="#E2E4E6"/>
<rect x="189" y="463" width="40" height="12" rx="2" fill="#E2E4E6"/>
<rect x="249" y="463" width="12" height="12" rx="2" fill="#E2E4E6"/>
<rect x="269" y="463" width="64" height="12" rx="2" fill="#E2E4E6"/>
<path d="M41 357.5H333" stroke="#E8E8E8"/>
<path d="M41 357.5H333" stroke="#E8E8E8"/>
<path d="M41 404.5H333" stroke="#E8E8E8"/>
<path d="M41 369.5C40.4477 369.5 40 369.948 40 370.5C40 371.052 40.4477 371.5 41 371.5V369.5ZM57.0286 370.5L57.8063 369.871C57.6165 369.637 57.3306 369.5 57.0286 369.5V370.5ZM71.1714 388L70.3937 388.629C70.6732 388.974 71.1474 389.094 71.5576 388.922L71.1714 388ZM83.1143 383L83.6512 382.156C83.3749 381.981 83.0301 381.951 82.7281 382.078L83.1143 383ZM97.2571 392L96.7203 392.844C96.8807 392.946 97.067 393 97.2571 393V392ZM115.171 392L115.91 391.326C115.721 391.118 115.453 391 115.171 391V392ZM129.314 407.5L128.576 408.174C128.763 408.38 129.028 408.498 129.306 408.5C129.584 408.502 129.851 408.388 130.042 408.186L129.314 407.5ZM137.8 398.5L138.035 397.528C137.686 397.444 137.319 397.553 137.072 397.814L137.8 398.5ZM152.257 402L152.924 401.255C152.801 401.145 152.653 401.067 152.492 401.028L152.257 402ZM162.314 411L161.647 411.745C161.854 411.93 162.128 412.021 162.404 411.996C162.679 411.971 162.933 411.833 163.103 411.615L162.314 411ZM172.057 398.5V397.5C171.749 397.5 171.458 397.642 171.268 397.885L172.057 398.5ZM180.857 398.5V399.5C181.24 399.5 181.589 399.282 181.756 398.938L180.857 398.5ZM188.4 383L189.22 382.427C189.017 382.137 188.675 381.975 188.322 382.003C187.968 382.031 187.656 382.244 187.501 382.562L188.4 383ZM194.686 392L193.866 392.573C194.053 392.84 194.359 393 194.686 393V392ZM201.286 392L201.927 391.233C201.747 391.082 201.52 391 201.286 391V392ZM219.829 407.5L219.187 408.267C219.519 408.545 219.992 408.577 220.359 408.348L219.829 407.5ZM228.629 402L229.159 402.848C229.356 402.724 229.505 402.536 229.578 402.314L228.629 402ZM234.914 383L234.224 382.277C234.105 382.39 234.016 382.53 233.965 382.686L234.914 383ZM244.343 374L245.033 374.723C245.123 374.638 245.196 374.536 245.249 374.423L244.343 374ZM252.514 356.5L252.232 355.541C251.957 355.622 251.73 355.817 251.608 356.077L252.514 356.5ZM255.667 354C255.667 356.946 258.054 359.333 261 359.333C263.946 359.333 266.333 356.946 266.333 354C266.333 351.054 263.946 348.667 261 348.667C258.054 348.667 255.667 351.054 255.667 354ZM41 371.5H57.0286V369.5H41V371.5ZM56.2508 371.129L70.3937 388.629L71.9492 387.371L57.8063 369.871L56.2508 371.129ZM71.5576 388.922L83.5005 383.922L82.7281 382.078L70.7852 387.078L71.5576 388.922ZM82.5774 383.844L96.7203 392.844L97.794 391.156L83.6512 382.156L82.5774 383.844ZM97.2571 393H115.171V391H97.2571V393ZM114.433 392.674L128.576 408.174L130.053 406.826L115.91 391.326L114.433 392.674ZM130.042 408.186L138.528 399.186L137.072 397.814L128.587 406.814L130.042 408.186ZM137.565 399.472L152.022 402.972L152.492 401.028L138.035 397.528L137.565 399.472ZM151.59 402.745L161.647 411.745L162.981 410.255L152.924 401.255L151.59 402.745ZM163.103 411.615L172.846 399.115L171.268 397.885L161.526 410.385L163.103 411.615ZM172.057 399.5H180.857V397.5H172.057V399.5ZM181.756 398.938L189.299 383.438L187.501 382.562L179.958 398.062L181.756 398.938ZM187.58 383.573L193.866 392.573L195.506 391.427L189.22 382.427L187.58 383.573ZM194.686 393H201.286V391H194.686V393ZM200.644 392.767L219.187 408.267L220.47 406.733L201.927 391.233L200.644 392.767ZM220.359 408.348L229.159 402.848L228.099 401.152L219.299 406.652L220.359 408.348ZM229.578 402.314L235.864 383.314L233.965 382.686L227.679 401.686L229.578 402.314ZM235.605 383.723L245.033 374.723L243.652 373.277L234.224 382.277L235.605 383.723ZM245.249 374.423L253.42 356.923L251.608 356.077L243.437 373.577L245.249 374.423ZM252.797 357.459L261.283 354.959L260.717 353.041L252.232 355.541L252.797 357.459Z" fill="#5753F7"/>
<path d="M41.799 297.727H43.1307L45.446 303.381H45.5312L47.8466 297.727H49.1783V305H48.1342V299.737H48.0668L45.9219 304.989H45.0554L42.9105 299.734H42.843V305H41.799V297.727ZM51.1736 305V297.727H55.7333V298.672H52.2709V300.888H55.4953V301.829H52.2709V304.055H55.7759V305H51.1736ZM61.5656 299.638C61.5277 299.302 61.3715 299.041 61.0969 298.857C60.8223 298.67 60.4766 298.576 60.0599 298.576C59.7616 298.576 59.5036 298.623 59.2858 298.718C59.068 298.81 58.8987 298.938 58.778 299.102C58.6596 299.263 58.6004 299.446 58.6004 299.652C58.6004 299.825 58.6407 299.974 58.7212 300.099C58.804 300.225 58.9117 300.33 59.0443 300.415C59.1793 300.498 59.3237 300.568 59.4776 300.625C59.6314 300.679 59.7794 300.724 59.9214 300.76L60.6317 300.945C60.8637 301.001 61.1016 301.078 61.3455 301.175C61.5893 301.272 61.8154 301.4 62.0237 301.559C62.2321 301.718 62.4001 301.914 62.528 302.148C62.6582 302.383 62.7233 302.663 62.7233 302.99C62.7233 303.402 62.6168 303.768 62.4037 304.087C62.193 304.407 61.8864 304.659 61.4839 304.844C61.0839 305.028 60.5997 305.121 60.0315 305.121C59.487 305.121 59.0159 305.034 58.6182 304.862C58.2205 304.689 57.9091 304.444 57.6842 304.126C57.4593 303.807 57.335 303.428 57.3114 302.99H58.4122C58.4335 303.253 58.5188 303.472 58.6679 303.647C58.8194 303.82 59.0124 303.949 59.2467 304.034C59.4835 304.117 59.7427 304.158 60.0244 304.158C60.3346 304.158 60.6104 304.11 60.8518 304.013C61.0957 303.913 61.2875 303.776 61.4271 303.601C61.5668 303.423 61.6366 303.216 61.6366 302.979C61.6366 302.764 61.5751 302.588 61.452 302.45C61.3313 302.313 61.1667 302.199 60.9584 302.109C60.7524 302.019 60.5192 301.94 60.2588 301.871L59.3994 301.637C58.817 301.478 58.3554 301.245 58.0145 300.938C57.6759 300.63 57.5067 300.223 57.5067 299.716C57.5067 299.297 57.6203 298.931 57.8476 298.619C58.0749 298.306 58.3826 298.063 58.7709 297.891C59.1591 297.715 59.5971 297.628 60.0848 297.628C60.5772 297.628 61.0116 297.714 61.3881 297.887C61.7669 298.06 62.0652 298.298 62.283 298.601C62.5008 298.902 62.6144 299.247 62.6239 299.638H61.5656ZM68.4012 299.638C68.3633 299.302 68.207 299.041 67.9324 298.857C67.6578 298.67 67.3122 298.576 66.8955 298.576C66.5972 298.576 66.3391 298.623 66.1213 298.718C65.9035 298.81 65.7343 298.938 65.6135 299.102C65.4952 299.263 65.436 299.446 65.436 299.652C65.436 299.825 65.4762 299.974 65.5567 300.099C65.6396 300.225 65.7473 300.33 65.8799 300.415C66.0148 300.498 66.1592 300.568 66.3131 300.625C66.467 300.679 66.615 300.724 66.757 300.76L67.4672 300.945C67.6992 301.001 67.9372 301.078 68.181 301.175C68.4248 301.272 68.6509 301.4 68.8593 301.559C69.0676 301.718 69.2357 301.914 69.3635 302.148C69.4937 302.383 69.5588 302.663 69.5588 302.99C69.5588 303.402 69.4523 303.768 69.2392 304.087C69.0285 304.407 68.722 304.659 68.3195 304.844C67.9194 305.028 67.4353 305.121 66.8671 305.121C66.3226 305.121 65.8515 305.034 65.4537 304.862C65.056 304.689 64.7447 304.444 64.5198 304.126C64.2949 303.807 64.1706 303.428 64.1469 302.99H65.2478C65.2691 303.253 65.3543 303.472 65.5034 303.647C65.655 303.82 65.8479 303.949 66.0823 304.034C66.319 304.117 66.5783 304.158 66.86 304.158C67.1701 304.158 67.4459 304.11 67.6874 304.013C67.9312 303.913 68.123 303.776 68.2627 303.601C68.4024 303.423 68.4722 303.216 68.4722 302.979C68.4722 302.764 68.4106 302.588 68.2875 302.45C68.1668 302.313 68.0023 302.199 67.7939 302.109C67.588 302.019 67.3548 301.94 67.0944 301.871L66.235 301.637C65.6526 301.478 65.1909 301.245 64.85 300.938C64.5115 300.63 64.3422 300.223 64.3422 299.716C64.3422 299.297 64.4559 298.931 64.6831 298.619C64.9104 298.306 65.2182 298.063 65.6064 297.891C65.9947 297.715 66.4327 297.628 66.9203 297.628C67.4128 297.628 67.8472 297.714 68.2236 297.887C68.6024 298.06 68.9007 298.298 69.1185 298.601C69.3363 298.902 69.4499 299.247 69.4594 299.638H68.4012ZM71.8259 305H70.6611L73.2783 297.727H74.546L77.1632 305H75.9984L73.9423 299.048H73.8855L71.8259 305ZM72.0212 302.152H75.7996V303.075H72.0212V302.152ZM83.1935 300.025C83.1249 299.809 83.0326 299.616 82.9165 299.446C82.8029 299.273 82.6668 299.126 82.5082 299.006C82.3496 298.883 82.1684 298.789 81.9648 298.725C81.7636 298.661 81.5423 298.629 81.3008 298.629C80.8912 298.629 80.5219 298.735 80.1928 298.945C79.8638 299.156 79.6033 299.465 79.4116 299.872C79.2222 300.277 79.1275 300.773 79.1275 301.36C79.1275 301.95 79.2234 302.448 79.4151 302.855C79.6069 303.262 79.8697 303.571 80.2035 303.782C80.5373 303.993 80.9173 304.098 81.3434 304.098C81.7388 304.098 82.0832 304.018 82.3768 303.857C82.6727 303.696 82.9012 303.468 83.0621 303.175C83.2255 302.879 83.3072 302.531 83.3072 302.131L83.5913 302.184H81.5103V301.278H84.369V302.106C84.369 302.717 84.2388 303.247 83.9783 303.697C83.7203 304.144 83.3628 304.49 82.9059 304.734C82.4513 304.978 81.9305 305.099 81.3434 305.099C80.6853 305.099 80.1076 304.948 79.6104 304.645C79.1156 304.342 78.7298 303.912 78.4528 303.356C78.1758 302.797 78.0373 302.134 78.0373 301.367C78.0373 300.787 78.1178 300.266 78.2788 299.805C78.4397 299.343 78.6658 298.951 78.957 298.629C79.2506 298.305 79.5951 298.058 79.9904 297.887C80.3881 297.714 80.8226 297.628 81.2937 297.628C81.6867 297.628 82.0524 297.686 82.391 297.802C82.7319 297.918 83.0349 298.082 83.3001 298.295C83.5676 298.509 83.7889 298.762 83.9641 299.055C84.1393 299.347 84.2577 299.67 84.3192 300.025H83.1935ZM86.1619 305V297.727H90.7216V298.672H87.2592V300.888H90.4836V301.829H87.2592V304.055H90.7642V305H86.1619ZM96.5539 299.638C96.516 299.302 96.3598 299.041 96.0852 298.857C95.8105 298.67 95.4649 298.576 95.0482 298.576C94.7499 298.576 94.4919 298.623 94.2741 298.718C94.0563 298.81 93.887 298.938 93.7663 299.102C93.6479 299.263 93.5887 299.446 93.5887 299.652C93.5887 299.825 93.629 299.974 93.7094 300.099C93.7923 300.225 93.9 300.33 94.0326 300.415C94.1675 300.498 94.312 300.568 94.4658 300.625C94.6197 300.679 94.7677 300.724 94.9097 300.76L95.62 300.945C95.852 301.001 96.0899 301.078 96.3337 301.175C96.5776 301.272 96.8037 301.4 97.012 301.559C97.2203 301.718 97.3884 301.914 97.5163 302.148C97.6465 302.383 97.7116 302.663 97.7116 302.99C97.7116 303.402 97.605 303.768 97.392 304.087C97.1813 304.407 96.8747 304.659 96.4722 304.844C96.0721 305.028 95.588 305.121 95.0198 305.121C94.4753 305.121 94.0042 305.034 93.6065 304.862C93.2087 304.689 92.8974 304.444 92.6725 304.126C92.4476 303.807 92.3233 303.428 92.2996 302.99H93.4005C93.4218 303.253 93.507 303.472 93.6562 303.647C93.8077 303.82 94.0006 303.949 94.235 304.034C94.4718 304.117 94.731 304.158 95.0127 304.158C95.3228 304.158 95.5986 304.11 95.8401 304.013C96.084 303.913 96.2757 303.776 96.4154 303.601C96.5551 303.423 96.6249 303.216 96.6249 302.979C96.6249 302.764 96.5634 302.588 96.4403 302.45C96.3195 302.313 96.155 302.199 95.9467 302.109C95.7407 302.019 95.5075 301.94 95.2471 301.871L94.3877 301.637C93.8053 301.478 93.3437 301.245 93.0028 300.938C92.6642 300.63 92.495 300.223 92.495 299.716C92.495 299.297 92.6086 298.931 92.8359 298.619C93.0631 298.306 93.3709 298.063 93.7592 297.891C94.1474 297.715 94.5854 297.628 95.0731 297.628C95.5655 297.628 95.9999 297.714 96.3763 297.887C96.7551 298.06 97.0534 298.298 97.2712 298.601C97.489 298.902 97.6027 299.247 97.6121 299.638H96.5539Z" fill="#889096"/>
<path d="M42.2926 334V332.097L47.3423 327.146C47.8253 326.659 48.2277 326.225 48.5497 325.847C48.8717 325.468 49.1132 325.101 49.2741 324.746C49.4351 324.391 49.5156 324.012 49.5156 323.609C49.5156 323.15 49.4115 322.757 49.2031 322.43C48.9948 322.099 48.7083 321.843 48.3438 321.663C47.9792 321.483 47.5649 321.393 47.1009 321.393C46.6226 321.393 46.2036 321.493 45.8438 321.692C45.4839 321.886 45.2045 322.163 45.0057 322.523C44.8116 322.883 44.7145 323.311 44.7145 323.808H42.2074C42.2074 322.885 42.4181 322.082 42.8395 321.401C43.2609 320.719 43.8409 320.191 44.5795 319.817C45.3229 319.443 46.1752 319.256 47.1364 319.256C48.1117 319.256 48.9688 319.438 49.7074 319.803C50.446 320.167 51.0189 320.667 51.4261 321.301C51.8381 321.936 52.044 322.66 52.044 323.474C52.044 324.019 51.9399 324.554 51.7315 325.08C51.5232 325.605 51.1563 326.187 50.6307 326.827C50.1098 327.466 49.3783 328.24 48.4361 329.149L45.929 331.699V331.798H52.2642V334H42.2926ZM59.6147 334.199C58.5919 334.199 57.6828 334.024 56.8874 333.673C56.0967 333.323 55.4717 332.835 55.0124 332.21C54.5531 331.585 54.3093 330.863 54.2809 330.044H56.9513C56.975 330.437 57.1052 330.78 57.3419 331.074C57.5787 331.363 57.8935 331.588 58.2865 331.749C58.6795 331.91 59.1199 331.99 59.6076 331.99C60.1284 331.99 60.59 331.9 60.9925 331.72C61.395 331.536 61.7098 331.28 61.9371 330.953C62.1644 330.626 62.2756 330.25 62.2709 329.824C62.2756 329.384 62.162 328.995 61.93 328.659C61.698 328.323 61.3618 328.06 60.9215 327.871C60.4859 327.681 59.9603 327.587 59.3448 327.587H58.0593V325.555H59.3448C59.8514 325.555 60.2941 325.468 60.6729 325.293C61.0564 325.117 61.3571 324.871 61.5749 324.554C61.7927 324.232 61.8992 323.86 61.8945 323.439C61.8992 323.027 61.8069 322.67 61.6175 322.366C61.4328 322.059 61.1701 321.82 60.8291 321.649C60.493 321.479 60.0976 321.393 59.6431 321.393C59.198 321.393 58.7861 321.474 58.4073 321.635C58.0285 321.796 57.7231 322.026 57.4911 322.324C57.2591 322.617 57.136 322.968 57.1218 323.375H54.5863C54.6052 322.561 54.8396 321.846 55.2894 321.23C55.7439 320.61 56.35 320.127 57.1076 319.781C57.8651 319.431 58.715 319.256 59.6573 319.256C60.6279 319.256 61.4707 319.438 62.1857 319.803C62.9054 320.162 63.4617 320.648 63.8547 321.259C64.2477 321.869 64.4442 322.544 64.4442 323.283C64.4489 324.102 64.2075 324.788 63.7198 325.342C63.2368 325.896 62.6023 326.259 61.8164 326.429V326.543C62.8391 326.685 63.6227 327.063 64.1672 327.679C64.7165 328.29 64.9887 329.05 64.984 329.959C64.984 330.773 64.752 331.502 64.288 332.146C63.8287 332.786 63.1942 333.287 62.3845 333.652C61.5796 334.017 60.6563 334.199 59.6147 334.199ZM66.839 331.301V329.206L73.0109 319.455H74.7581V322.438H73.6927L69.5379 329.021V329.135H78.153V331.301H66.839ZM73.778 334V330.662L73.8064 329.724V319.455H76.2922V334H73.778ZM81.3042 334.156C80.8733 334.156 80.504 334.005 80.1963 333.702C79.8885 333.399 79.737 333.029 79.7417 332.594C79.737 332.168 79.8885 331.803 80.1963 331.5C80.504 331.197 80.8733 331.045 81.3042 331.045C81.7209 331.045 82.0831 331.197 82.3909 331.5C82.7034 331.803 82.862 332.168 82.8667 332.594C82.862 332.883 82.7862 333.145 82.6394 333.382C82.4974 333.619 82.308 333.808 82.0713 333.95C81.8392 334.088 81.5836 334.156 81.3042 334.156ZM85.1728 334V332.097L90.2225 327.146C90.7054 326.659 91.1079 326.225 91.4299 325.847C91.7518 325.468 91.9933 325.101 92.1543 324.746C92.3153 324.391 92.3958 324.012 92.3958 323.609C92.3958 323.15 92.2916 322.757 92.0833 322.43C91.8749 322.099 91.5885 321.843 91.2239 321.663C90.8593 321.483 90.445 321.393 89.981 321.393C89.5028 321.393 89.0838 321.493 88.7239 321.692C88.3641 321.886 88.0847 322.163 87.8858 322.523C87.6917 322.883 87.5946 323.311 87.5946 323.808H85.0875C85.0875 322.885 85.2982 322.082 85.7196 321.401C86.141 320.719 86.7211 320.191 87.4597 319.817C88.2031 319.443 89.0553 319.256 90.0165 319.256C90.9919 319.256 91.8489 319.438 92.5875 319.803C93.3262 320.167 93.8991 320.667 94.3063 321.301C94.7182 321.936 94.9242 322.66 94.9242 323.474C94.9242 324.019 94.82 324.554 94.6117 325.08C94.4034 325.605 94.0364 326.187 93.5108 326.827C92.99 327.466 92.2585 328.24 91.3162 329.149L88.8091 331.699V331.798H95.1444V334H85.1728ZM97.4167 334V319.455H100.052V326.138H100.229L105.904 319.455H109.121L103.496 325.982L109.171 334H106.003L101.664 327.764L100.052 329.668V334H97.4167Z" fill="#11181C"/>
<path d="M145.799 305V297.727H150.359V298.672H146.896V300.888H150.121V301.829H146.896V304.055H150.401V305H145.799ZM152.224 305V297.727H154.817C155.38 297.727 155.848 297.824 156.219 298.018C156.593 298.213 156.873 298.481 157.057 298.825C157.242 299.165 157.334 299.56 157.334 300.007C157.334 300.452 157.241 300.844 157.054 301.183C156.869 301.519 156.59 301.78 156.216 301.967C155.844 302.154 155.377 302.248 154.813 302.248H152.849V301.303H154.714C155.069 301.303 155.358 301.252 155.58 301.151C155.805 301.049 155.97 300.901 156.074 300.707C156.178 300.513 156.23 300.279 156.23 300.007C156.23 299.732 156.177 299.495 156.07 299.293C155.966 299.092 155.802 298.938 155.577 298.832C155.354 298.723 155.062 298.668 154.7 298.668H153.322V305H152.224ZM155.815 301.719L157.611 305H156.361L154.6 301.719H155.815ZM159.07 305V297.727H161.662C162.225 297.727 162.693 297.824 163.065 298.018C163.439 298.213 163.718 298.481 163.903 298.825C164.087 299.165 164.18 299.56 164.18 300.007C164.18 300.452 164.086 300.844 163.899 301.183C163.715 301.519 163.435 301.78 163.061 301.967C162.69 302.154 162.222 302.248 161.658 302.248H159.695V301.303H161.559C161.914 301.303 162.203 301.252 162.426 301.151C162.65 301.049 162.815 300.901 162.919 300.707C163.023 300.513 163.075 300.279 163.075 300.007C163.075 299.732 163.022 299.495 162.916 299.293C162.811 299.092 162.647 298.938 162.422 298.832C162.199 298.723 161.907 298.668 161.545 298.668H160.167V305H159.07ZM162.66 301.719L164.457 305H163.207L161.445 301.719H162.66ZM172.232 301.364C172.232 302.14 172.09 302.808 171.806 303.366C171.522 303.923 171.133 304.351 170.638 304.652C170.146 304.95 169.586 305.099 168.958 305.099C168.329 305.099 167.766 304.95 167.272 304.652C166.779 304.351 166.391 303.922 166.107 303.363C165.823 302.804 165.681 302.138 165.681 301.364C165.681 300.587 165.823 299.921 166.107 299.364C166.391 298.806 166.779 298.377 167.272 298.079C167.766 297.778 168.329 297.628 168.958 297.628C169.586 297.628 170.146 297.778 170.638 298.079C171.133 298.377 171.522 298.806 171.806 299.364C172.09 299.921 172.232 300.587 172.232 301.364ZM171.146 301.364C171.146 300.772 171.05 300.273 170.858 299.869C170.669 299.461 170.408 299.154 170.077 298.945C169.748 298.735 169.375 298.629 168.958 298.629C168.539 298.629 168.165 298.735 167.836 298.945C167.507 299.154 167.247 299.461 167.055 299.869C166.866 300.273 166.771 300.772 166.771 301.364C166.771 301.955 166.866 302.455 167.055 302.862C167.247 303.267 167.507 303.575 167.836 303.786C168.165 303.994 168.539 304.098 168.958 304.098C169.375 304.098 169.748 303.994 170.077 303.786C170.408 303.575 170.669 303.267 170.858 302.862C171.05 302.455 171.146 301.955 171.146 301.364ZM174.001 305V297.727H176.593C177.156 297.727 177.624 297.824 177.996 298.018C178.37 298.213 178.649 298.481 178.834 298.825C179.018 299.165 179.111 299.56 179.111 300.007C179.111 300.452 179.017 300.844 178.83 301.183C178.645 301.519 178.366 301.78 177.992 301.967C177.62 302.154 177.153 302.248 176.589 302.248H174.626V301.303H176.49C176.845 301.303 177.134 301.252 177.356 301.151C177.581 301.049 177.746 300.901 177.85 300.707C177.954 300.513 178.006 300.279 178.006 300.007C178.006 299.732 177.953 299.495 177.846 299.293C177.742 299.092 177.578 298.938 177.353 298.832C177.13 298.723 176.838 298.668 176.476 298.668H175.098V305H174.001ZM177.591 301.719L179.388 305H178.138L176.376 301.719H177.591ZM184.812 299.638C184.775 299.302 184.618 299.041 184.344 298.857C184.069 298.67 183.723 298.576 183.307 298.576C183.009 298.576 182.75 298.623 182.533 298.718C182.315 298.81 182.146 298.938 182.025 299.102C181.906 299.263 181.847 299.446 181.847 299.652C181.847 299.825 181.888 299.974 181.968 300.099C182.051 300.225 182.159 300.33 182.291 300.415C182.426 300.498 182.571 300.568 182.724 300.625C182.878 300.679 183.026 300.724 183.168 300.76L183.879 300.945C184.111 301.001 184.348 301.078 184.592 301.175C184.836 301.272 185.062 301.4 185.271 301.559C185.479 301.718 185.647 301.914 185.775 302.148C185.905 302.383 185.97 302.663 185.97 302.99C185.97 303.402 185.864 303.768 185.651 304.087C185.44 304.407 185.133 304.659 184.731 304.844C184.331 305.028 183.847 305.121 183.278 305.121C182.734 305.121 182.263 305.034 181.865 304.862C181.467 304.689 181.156 304.444 180.931 304.126C180.706 303.807 180.582 303.428 180.558 302.99H181.659C181.68 303.253 181.766 303.472 181.915 303.647C182.066 303.82 182.259 303.949 182.494 304.034C182.73 304.117 182.99 304.158 183.271 304.158C183.581 304.158 183.857 304.11 184.099 304.013C184.343 303.913 184.534 303.776 184.674 303.601C184.814 303.423 184.884 303.216 184.884 302.979C184.884 302.764 184.822 302.588 184.699 302.45C184.578 302.313 184.414 302.199 184.205 302.109C183.999 302.019 183.766 301.94 183.506 301.871L182.646 301.637C182.064 301.478 181.602 301.245 181.261 300.938C180.923 300.63 180.754 300.223 180.754 299.716C180.754 299.297 180.867 298.931 181.094 298.619C181.322 298.306 181.629 298.063 182.018 297.891C182.406 297.715 182.844 297.628 183.332 297.628C183.824 297.628 184.259 297.714 184.635 297.887C185.014 298.06 185.312 298.298 185.53 298.601C185.748 298.902 185.861 299.247 185.871 299.638H184.812Z" fill="#889096"/>
<path d="M151.669 334.277C150.5 334.277 149.496 333.981 148.658 333.389C147.824 332.793 147.183 331.933 146.733 330.811C146.288 329.684 146.065 328.328 146.065 326.741C146.07 325.155 146.295 323.806 146.74 322.693C147.19 321.576 147.831 320.723 148.665 320.136C149.503 319.549 150.504 319.256 151.669 319.256C152.834 319.256 153.835 319.549 154.673 320.136C155.511 320.723 156.153 321.576 156.598 322.693C157.048 323.811 157.273 325.16 157.273 326.741C157.273 328.332 157.048 329.691 156.598 330.818C156.153 331.94 155.511 332.797 154.673 333.389C153.84 333.981 152.839 334.277 151.669 334.277ZM151.669 332.054C152.578 332.054 153.295 331.607 153.821 330.712C154.351 329.812 154.616 328.489 154.616 326.741C154.616 325.586 154.496 324.616 154.254 323.83C154.013 323.044 153.672 322.452 153.232 322.054C152.791 321.652 152.27 321.45 151.669 321.45C150.765 321.45 150.05 321.9 149.524 322.8C148.999 323.695 148.733 325.009 148.729 326.741C148.724 327.902 148.84 328.877 149.077 329.668C149.318 330.458 149.659 331.055 150.099 331.457C150.54 331.855 151.063 332.054 151.669 332.054ZM160.358 334.156C159.927 334.156 159.558 334.005 159.25 333.702C158.943 333.399 158.791 333.029 158.796 332.594C158.791 332.168 158.943 331.803 159.25 331.5C159.558 331.197 159.927 331.045 160.358 331.045C160.775 331.045 161.137 331.197 161.445 331.5C161.757 331.803 161.916 332.168 161.921 332.594C161.916 332.883 161.84 333.145 161.693 333.382C161.551 333.619 161.362 333.808 161.125 333.95C160.893 334.088 160.638 334.156 160.358 334.156ZM169.037 334.277C167.867 334.277 166.864 333.981 166.025 333.389C165.192 332.793 164.551 331.933 164.101 330.811C163.656 329.684 163.433 328.328 163.433 326.741C163.438 325.155 163.663 323.806 164.108 322.693C164.558 321.576 165.199 320.723 166.033 320.136C166.871 319.549 167.872 319.256 169.037 319.256C170.202 319.256 171.203 319.549 172.041 320.136C172.879 320.723 173.521 321.576 173.966 322.693C174.416 323.811 174.641 325.16 174.641 326.741C174.641 328.332 174.416 329.691 173.966 330.818C173.521 331.94 172.879 332.797 172.041 333.389C171.208 333.981 170.206 334.277 169.037 334.277ZM169.037 332.054C169.946 332.054 170.663 331.607 171.189 330.712C171.719 329.812 171.984 328.489 171.984 326.741C171.984 325.586 171.864 324.616 171.622 323.83C171.381 323.044 171.04 322.452 170.599 322.054C170.159 321.652 169.638 321.45 169.037 321.45C168.132 321.45 167.418 321.9 166.892 322.8C166.366 323.695 166.101 325.009 166.097 326.741C166.092 327.902 166.208 328.877 166.445 329.668C166.686 330.458 167.027 331.055 167.467 331.457C167.908 331.855 168.431 332.054 169.037 332.054ZM184.457 331.273V330.506C184.457 329.942 184.576 329.424 184.812 328.95C185.054 328.477 185.404 328.096 185.864 327.807C186.323 327.518 186.879 327.374 187.533 327.374C188.205 327.374 188.768 327.518 189.223 327.807C189.677 328.091 190.021 328.47 190.253 328.943C190.489 329.417 190.608 329.937 190.608 330.506V331.273C190.608 331.836 190.489 332.355 190.253 332.828C190.016 333.302 189.668 333.683 189.209 333.972C188.754 334.26 188.195 334.405 187.533 334.405C186.87 334.405 186.309 334.26 185.849 333.972C185.39 333.683 185.042 333.302 184.805 332.828C184.573 332.355 184.457 331.836 184.457 331.273ZM186.311 330.506V331.273C186.311 331.647 186.401 331.99 186.581 332.303C186.761 332.615 187.078 332.771 187.533 332.771C187.992 332.771 188.307 332.617 188.477 332.31C188.652 331.997 188.74 331.652 188.74 331.273V330.506C188.74 330.127 188.657 329.781 188.491 329.469C188.326 329.152 188.006 328.993 187.533 328.993C187.087 328.993 186.773 329.152 186.588 329.469C186.403 329.781 186.311 330.127 186.311 330.506ZM177.064 322.949V322.182C177.064 321.614 177.185 321.093 177.426 320.619C177.667 320.146 178.018 319.767 178.477 319.483C178.936 319.194 179.493 319.05 180.146 319.05C180.814 319.05 181.375 319.194 181.829 319.483C182.289 319.767 182.634 320.146 182.866 320.619C183.098 321.093 183.214 321.614 183.214 322.182V322.949C183.214 323.517 183.096 324.038 182.859 324.511C182.627 324.98 182.282 325.357 181.822 325.641C181.363 325.925 180.804 326.067 180.146 326.067C179.479 326.067 178.915 325.925 178.456 325.641C178.001 325.357 177.656 324.978 177.419 324.504C177.182 324.031 177.064 323.512 177.064 322.949ZM178.932 322.182V322.949C178.932 323.328 179.019 323.673 179.194 323.986C179.374 324.294 179.692 324.447 180.146 324.447C180.601 324.447 180.913 324.294 181.084 323.986C181.259 323.673 181.346 323.328 181.346 322.949V322.182C181.346 321.803 181.264 321.457 181.098 321.145C180.932 320.828 180.615 320.669 180.146 320.669C179.696 320.669 179.382 320.828 179.202 321.145C179.022 321.462 178.932 321.808 178.932 322.182ZM177.873 334L187.873 319.455H189.649L179.649 334H177.873Z" fill="#11181C"/>
<path d="M250.413 305H249.249L251.866 297.727H253.134L255.751 305H254.586L252.53 299.048H252.473L250.413 305ZM250.609 302.152H254.387V303.075H250.609V302.152ZM257.075 297.727L259.099 303.651H259.181L261.205 297.727H262.391L259.774 305H258.506L255.889 297.727H257.075ZM268.402 300.025C268.333 299.809 268.241 299.616 268.125 299.446C268.011 299.273 267.875 299.126 267.716 299.006C267.558 298.883 267.377 298.789 267.173 298.725C266.972 298.661 266.75 298.629 266.509 298.629C266.099 298.629 265.73 298.735 265.401 298.945C265.072 299.156 264.812 299.465 264.62 299.872C264.43 300.277 264.336 300.773 264.336 301.36C264.336 301.95 264.432 302.448 264.623 302.855C264.815 303.262 265.078 303.571 265.412 303.782C265.745 303.993 266.125 304.098 266.552 304.098C266.947 304.098 267.291 304.018 267.585 303.857C267.881 303.696 268.109 303.468 268.27 303.175C268.434 302.879 268.515 302.531 268.515 302.131L268.799 302.184H266.719V301.278H269.577V302.106C269.577 302.717 269.447 303.247 269.187 303.697C268.928 304.144 268.571 304.49 268.114 304.734C267.66 304.978 267.139 305.099 266.552 305.099C265.893 305.099 265.316 304.948 264.819 304.645C264.324 304.342 263.938 303.912 263.661 303.356C263.384 302.797 263.245 302.134 263.245 301.367C263.245 300.787 263.326 300.266 263.487 299.805C263.648 299.343 263.874 298.951 264.165 298.629C264.459 298.305 264.803 298.058 265.199 297.887C265.596 297.714 266.031 297.628 266.502 297.628C266.895 297.628 267.261 297.686 267.599 297.802C267.94 297.918 268.243 298.082 268.508 298.295C268.776 298.509 268.997 298.762 269.172 299.055C269.348 299.347 269.466 299.67 269.527 300.025H268.402ZM271.984 305.067C271.79 305.067 271.623 304.999 271.484 304.862C271.344 304.722 271.274 304.554 271.274 304.357C271.274 304.163 271.344 303.997 271.484 303.86C271.623 303.72 271.79 303.651 271.984 303.651C272.179 303.651 272.345 303.72 272.485 303.86C272.625 303.997 272.695 304.163 272.695 304.357C272.695 304.487 272.662 304.607 272.595 304.716C272.531 304.822 272.446 304.908 272.34 304.972C272.233 305.036 272.115 305.067 271.984 305.067ZM277.531 305V297.727H282.041V298.672H278.629V300.888H281.718V301.829H278.629V305H277.531ZM283.791 305V297.727H288.35V298.672H284.888V300.888H288.113V301.829H284.888V304.055H288.393V305H283.791ZM290.216 305V297.727H294.776V298.672H291.313V300.888H294.538V301.829H291.313V304.055H294.818V305H290.216ZM298.996 305H296.642V297.727H299.071C299.783 297.727 300.395 297.873 300.906 298.164C301.418 298.453 301.81 298.868 302.082 299.411C302.357 299.95 302.494 300.598 302.494 301.353C302.494 302.111 302.355 302.762 302.078 303.306C301.804 303.851 301.406 304.27 300.885 304.563C300.364 304.854 299.735 305 298.996 305ZM297.739 304.041H298.936C299.49 304.041 299.95 303.937 300.317 303.729C300.684 303.518 300.959 303.214 301.141 302.816C301.323 302.416 301.414 301.928 301.414 301.353C301.414 300.782 301.323 300.298 301.141 299.901C300.961 299.503 300.692 299.201 300.335 298.995C299.977 298.789 299.533 298.686 299.003 298.686H297.739V304.041ZM304.258 305V297.727H306.922C307.438 297.727 307.865 297.812 308.204 297.983C308.542 298.151 308.796 298.379 308.964 298.668C309.132 298.955 309.216 299.278 309.216 299.638C309.216 299.941 309.16 300.196 309.049 300.405C308.938 300.611 308.788 300.777 308.601 300.902C308.417 301.025 308.213 301.115 307.991 301.172V301.243C308.232 301.255 308.468 301.333 308.697 301.477C308.929 301.619 309.121 301.822 309.273 302.085C309.424 302.347 309.5 302.667 309.5 303.043C309.5 303.415 309.412 303.749 309.237 304.045C309.064 304.338 308.797 304.571 308.435 304.744C308.072 304.915 307.609 305 307.046 305H304.258ZM305.356 304.059H306.939C307.465 304.059 307.841 303.957 308.069 303.754C308.296 303.55 308.41 303.295 308.41 302.99C308.41 302.76 308.352 302.55 308.236 302.358C308.12 302.166 307.954 302.013 307.738 301.9C307.525 301.786 307.272 301.729 306.979 301.729H305.356V304.059ZM305.356 300.874H306.826C307.072 300.874 307.293 300.826 307.49 300.732C307.689 300.637 307.846 300.504 307.962 300.334C308.081 300.161 308.14 299.957 308.14 299.723C308.14 299.422 308.034 299.17 307.824 298.967C307.613 298.763 307.29 298.661 306.854 298.661H305.356V300.874ZM311.816 305H310.651L313.268 297.727H314.536L317.153 305H315.988L313.932 299.048H313.875L311.816 305ZM312.011 302.152H315.789V303.075H312.011V302.152ZM324.302 300.092H323.194C323.151 299.856 323.072 299.647 322.956 299.467C322.84 299.287 322.698 299.135 322.53 299.009C322.362 298.884 322.174 298.789 321.965 298.725C321.759 298.661 321.54 298.629 321.308 298.629C320.889 298.629 320.514 298.735 320.183 298.945C319.854 299.156 319.593 299.465 319.401 299.872C319.212 300.279 319.117 300.777 319.117 301.364C319.117 301.955 319.212 302.455 319.401 302.862C319.593 303.269 319.855 303.577 320.186 303.786C320.518 303.994 320.891 304.098 321.305 304.098C321.534 304.098 321.752 304.067 321.958 304.006C322.167 303.942 322.355 303.848 322.523 303.725C322.691 303.602 322.833 303.452 322.949 303.274C323.067 303.094 323.149 302.888 323.194 302.656L324.302 302.66C324.243 303.017 324.128 303.346 323.958 303.647C323.789 303.945 323.573 304.203 323.308 304.421C323.045 304.637 322.744 304.804 322.406 304.922C322.067 305.04 321.698 305.099 321.298 305.099C320.668 305.099 320.107 304.95 319.614 304.652C319.122 304.351 318.734 303.922 318.45 303.363C318.168 302.804 318.027 302.138 318.027 301.364C318.027 300.587 318.169 299.921 318.453 299.364C318.737 298.806 319.126 298.377 319.618 298.079C320.11 297.778 320.67 297.628 321.298 297.628C321.684 297.628 322.043 297.683 322.377 297.795C322.713 297.904 323.015 298.065 323.283 298.278C323.55 298.488 323.772 298.746 323.947 299.052C324.122 299.355 324.24 299.702 324.302 300.092ZM326.015 305V297.727H327.112V301.2H327.201L330.252 297.727H331.633L328.7 301.001L331.644 305H330.323L327.972 301.751L327.112 302.738V305H326.015Z" fill="#889096"/>
<path d="M255.342 319.256C256.038 319.26 256.715 319.384 257.374 319.625C258.036 319.862 258.633 320.25 259.163 320.79C259.694 321.325 260.115 322.042 260.428 322.942C260.74 323.841 260.896 324.954 260.896 326.28C260.901 327.53 260.768 328.647 260.499 329.632C260.233 330.612 259.852 331.441 259.355 332.118C258.858 332.795 258.259 333.311 257.558 333.666C256.857 334.021 256.069 334.199 255.193 334.199C254.275 334.199 253.46 334.019 252.75 333.659C252.045 333.299 251.474 332.807 251.038 332.182C250.603 331.557 250.335 330.842 250.236 330.037H252.828C252.961 330.615 253.231 331.074 253.638 331.415C254.05 331.751 254.568 331.919 255.193 331.919C256.202 331.919 256.978 331.481 257.523 330.605C258.067 329.729 258.339 328.512 258.339 326.955H258.24C258.008 327.371 257.707 327.731 257.338 328.034C256.969 328.332 256.55 328.562 256.081 328.723C255.617 328.884 255.125 328.964 254.604 328.964C253.751 328.964 252.984 328.761 252.303 328.354C251.625 327.946 251.088 327.388 250.69 326.678C250.297 325.967 250.098 325.155 250.094 324.241C250.094 323.295 250.312 322.445 250.747 321.692C251.188 320.934 251.801 320.338 252.587 319.902C253.373 319.462 254.291 319.246 255.342 319.256ZM255.349 321.386C254.838 321.386 254.376 321.512 253.964 321.763C253.557 322.009 253.235 322.345 252.999 322.771C252.767 323.193 252.651 323.664 252.651 324.185C252.655 324.701 252.771 325.17 252.999 325.591C253.231 326.012 253.545 326.346 253.943 326.592C254.346 326.839 254.805 326.962 255.321 326.962C255.705 326.962 256.062 326.888 256.393 326.741C256.725 326.595 257.014 326.391 257.26 326.131C257.511 325.866 257.705 325.565 257.842 325.229C257.984 324.893 258.053 324.537 258.048 324.163C258.048 323.666 257.93 323.207 257.693 322.786C257.461 322.364 257.142 322.026 256.734 321.77C256.332 321.514 255.87 321.386 255.349 321.386ZM263.987 334.156C263.556 334.156 263.187 334.005 262.879 333.702C262.571 333.399 262.42 333.029 262.425 332.594C262.42 332.168 262.571 331.803 262.879 331.5C263.187 331.197 263.556 331.045 263.987 331.045C264.404 331.045 264.766 331.197 265.074 331.5C265.386 331.803 265.545 332.168 265.55 332.594C265.545 332.883 265.469 333.145 265.322 333.382C265.18 333.619 264.991 333.808 264.754 333.95C264.522 334.088 264.267 334.156 263.987 334.156ZM267.92 334L274.106 321.756V321.656H266.925V319.455H276.833V321.706L270.654 334H267.92ZM283.667 334.199C282.72 334.199 281.872 334.021 281.124 333.666C280.376 333.306 279.782 332.814 279.341 332.189C278.906 331.564 278.674 330.849 278.645 330.044H281.202C281.25 330.641 281.508 331.128 281.976 331.507C282.445 331.881 283.009 332.068 283.667 332.068C284.183 332.068 284.642 331.95 285.045 331.713C285.447 331.476 285.764 331.147 285.996 330.726C286.228 330.304 286.342 329.824 286.337 329.284C286.342 328.735 286.226 328.247 285.989 327.821C285.752 327.395 285.428 327.061 285.016 326.82C284.604 326.573 284.131 326.45 283.596 326.45C283.16 326.446 282.732 326.526 282.31 326.692C281.889 326.857 281.555 327.075 281.309 327.345L278.93 326.955L279.69 319.455H288.127V321.656H281.87L281.451 325.513H281.536C281.806 325.196 282.187 324.933 282.68 324.724C283.172 324.511 283.712 324.405 284.299 324.405C285.18 324.405 285.966 324.613 286.657 325.03C287.348 325.442 287.893 326.01 288.29 326.734C288.688 327.459 288.887 328.287 288.887 329.22C288.887 330.181 288.664 331.038 288.219 331.791C287.779 332.539 287.166 333.129 286.38 333.56C285.599 333.986 284.694 334.199 283.667 334.199Z" fill="#11181C"/>
<mask id="path-60-inside-1_865_5573" fill="white">
<path d="M41 229H333V269H41V229Z"/>
</mask>
<path d="M41 229H333V269H41V229Z" fill="white"/>
<path d="M82.5753 243.129H81.0241C80.9645 242.798 80.8535 242.506 80.6911 242.254C80.5286 242.002 80.3298 241.789 80.0945 241.613C79.8591 241.437 79.5956 241.305 79.304 241.215C79.0156 241.126 78.709 241.081 78.3842 241.081C77.7976 241.081 77.2723 241.228 76.8082 241.523C76.3475 241.818 75.983 242.251 75.7145 242.821C75.4493 243.391 75.3168 244.087 75.3168 244.909C75.3168 245.738 75.4493 246.437 75.7145 247.007C75.983 247.577 76.3492 248.008 76.8132 248.3C77.2772 248.591 77.7992 248.737 78.3793 248.737C78.7008 248.737 79.0057 248.694 79.294 248.608C79.5857 248.518 79.8492 248.388 80.0845 248.215C80.3198 248.043 80.5187 247.832 80.6811 247.584C80.8468 247.332 80.9612 247.044 81.0241 246.719L82.5753 246.724C82.4924 247.224 82.3317 247.685 82.093 248.106C81.8577 248.523 81.5545 248.885 81.1832 249.19C80.8153 249.491 80.3944 249.725 79.9205 249.891C79.4465 250.056 78.9295 250.139 78.3693 250.139C77.4877 250.139 76.7022 249.93 76.0128 249.513C75.3234 249.092 74.7798 248.49 74.3821 247.708C73.9877 246.926 73.7905 245.993 73.7905 244.909C73.7905 243.822 73.9893 242.889 74.3871 242.11C74.7848 241.328 75.3284 240.728 76.0178 240.31C76.7071 239.889 77.491 239.679 78.3693 239.679C78.9096 239.679 79.4134 239.757 79.8807 239.913C80.3513 240.065 80.7739 240.29 81.1484 240.589C81.523 240.884 81.8329 241.245 82.0781 241.673C82.3234 242.097 82.4891 242.582 82.5753 243.129ZM87.5108 250.154C86.7949 250.154 86.1702 249.99 85.6365 249.662C85.1029 249.334 84.6886 248.875 84.3936 248.285C84.0987 247.695 83.9512 247.005 83.9512 246.217C83.9512 245.424 84.0987 244.732 84.3936 244.138C84.6886 243.545 85.1029 243.085 85.6365 242.756C86.1702 242.428 86.7949 242.264 87.5108 242.264C88.2267 242.264 88.8515 242.428 89.3851 242.756C89.9187 243.085 90.333 243.545 90.628 244.138C90.923 244.732 91.0705 245.424 91.0705 246.217C91.0705 247.005 90.923 247.695 90.628 248.285C90.333 248.875 89.9187 249.334 89.3851 249.662C88.8515 249.99 88.2267 250.154 87.5108 250.154ZM87.5158 248.906C87.9798 248.906 88.3643 248.784 88.6692 248.538C88.9741 248.293 89.1995 247.967 89.3453 247.559C89.4945 247.151 89.5691 246.702 89.5691 246.212C89.5691 245.724 89.4945 245.277 89.3453 244.869C89.1995 244.458 88.9741 244.129 88.6692 243.88C88.3643 243.631 87.9798 243.507 87.5158 243.507C87.0485 243.507 86.6607 243.631 86.3525 243.88C86.0475 244.129 85.8205 244.458 85.6713 244.869C85.5255 245.277 85.4526 245.724 85.4526 246.212C85.4526 246.702 85.5255 247.151 85.6713 247.559C85.8205 247.967 86.0475 248.293 86.3525 248.538C86.6607 248.784 87.0485 248.906 87.5158 248.906ZM92.7298 252.864V242.364H94.1815V243.602H94.3058C94.3919 243.442 94.5162 243.259 94.6786 243.05C94.841 242.841 95.0664 242.659 95.3548 242.503C95.6431 242.344 96.0243 242.264 96.4982 242.264C97.1147 242.264 97.6649 242.42 98.1488 242.732C98.6327 243.043 99.0122 243.492 99.2873 244.079C99.5657 244.665 99.7049 245.371 99.7049 246.197C99.7049 247.022 99.5674 247.73 99.2923 248.32C99.0172 248.906 98.6393 249.359 98.1587 249.677C97.6781 249.992 97.1296 250.149 96.5131 250.149C96.0491 250.149 95.6696 250.071 95.3746 249.915C95.083 249.76 94.8543 249.577 94.6886 249.369C94.5228 249.16 94.3952 248.974 94.3058 248.812H94.2163V252.864H92.7298ZM94.1864 246.182C94.1864 246.719 94.2643 247.189 94.4201 247.594C94.5759 247.998 94.8013 248.315 95.0962 248.543C95.3912 248.769 95.7525 248.881 96.18 248.881C96.6242 248.881 96.9954 248.764 97.2937 248.528C97.592 248.29 97.8174 247.967 97.9698 247.559C98.1256 247.151 98.2035 246.692 98.2035 246.182C98.2035 245.678 98.1272 245.226 97.9748 244.825C97.8256 244.424 97.6003 244.107 97.2987 243.875C97.0004 243.643 96.6275 243.527 96.18 243.527C95.7492 243.527 95.3846 243.638 95.0863 243.86C94.7913 244.082 94.5676 244.392 94.4151 244.79C94.2627 245.187 94.1864 245.652 94.1864 246.182ZM101.37 250V242.364H102.857V250H101.37ZM102.121 241.185C101.863 241.185 101.641 241.099 101.455 240.927C101.273 240.751 101.181 240.542 101.181 240.3C101.181 240.055 101.273 239.846 101.455 239.674C101.641 239.498 101.863 239.411 102.121 239.411C102.38 239.411 102.6 239.498 102.782 239.674C102.968 239.846 103.061 240.055 103.061 240.3C103.061 240.542 102.968 240.751 102.782 240.927C102.6 241.099 102.38 241.185 102.121 241.185ZM106.343 239.818V250H104.857V239.818H106.343ZM111.56 250.154C110.844 250.154 110.219 249.99 109.685 249.662C109.152 249.334 108.737 248.875 108.442 248.285C108.147 247.695 108 247.005 108 246.217C108 245.424 108.147 244.732 108.442 244.138C108.737 243.545 109.152 243.085 109.685 242.756C110.219 242.428 110.844 242.264 111.56 242.264C112.276 242.264 112.9 242.428 113.434 242.756C113.968 243.085 114.382 243.545 114.677 244.138C114.972 244.732 115.119 245.424 115.119 246.217C115.119 247.005 114.972 247.695 114.677 248.285C114.382 248.875 113.968 249.334 113.434 249.662C112.9 249.99 112.276 250.154 111.56 250.154ZM111.565 248.906C112.029 248.906 112.413 248.784 112.718 248.538C113.023 248.293 113.248 247.967 113.394 247.559C113.543 247.151 113.618 246.702 113.618 246.212C113.618 245.724 113.543 245.277 113.394 244.869C113.248 244.458 113.023 244.129 112.718 243.88C112.413 243.631 112.029 243.507 111.565 243.507C111.097 243.507 110.71 243.631 110.401 243.88C110.096 244.129 109.869 244.458 109.72 244.869C109.574 245.277 109.501 245.724 109.501 246.212C109.501 246.702 109.574 247.151 109.72 247.559C109.869 247.967 110.096 248.293 110.401 248.538C110.71 248.784 111.097 248.906 111.565 248.906ZM120.343 242.364V243.557H116.172V242.364H120.343ZM117.291 240.534H118.777V247.758C118.777 248.046 118.82 248.263 118.906 248.409C118.993 248.552 119.104 248.649 119.24 248.702C119.379 248.752 119.53 248.777 119.692 248.777C119.811 248.777 119.916 248.769 120.005 248.752C120.095 248.736 120.164 248.722 120.214 248.712L120.482 249.94C120.396 249.973 120.274 250.007 120.115 250.04C119.955 250.076 119.757 250.096 119.518 250.099C119.127 250.106 118.762 250.036 118.424 249.891C118.086 249.745 117.813 249.519 117.604 249.214C117.395 248.91 117.291 248.527 117.291 248.066V240.534ZM125.812 250V239.818H129.441C130.233 239.818 130.89 239.962 131.41 240.251C131.93 240.539 132.32 240.933 132.578 241.434C132.837 241.931 132.966 242.491 132.966 243.114C132.966 243.741 132.835 244.304 132.573 244.805C132.315 245.302 131.924 245.696 131.4 245.988C130.88 246.276 130.225 246.42 129.436 246.42H126.941V245.118H129.297C129.798 245.118 130.204 245.032 130.515 244.859C130.827 244.684 131.055 244.445 131.201 244.143C131.347 243.842 131.42 243.499 131.42 243.114C131.42 242.73 131.347 242.388 131.201 242.09C131.055 241.792 130.825 241.558 130.51 241.389C130.199 241.22 129.788 241.136 129.277 241.136H127.348V250H125.812ZM137.843 250.154C137.091 250.154 136.443 249.993 135.899 249.672C135.359 249.347 134.941 248.891 134.646 248.305C134.355 247.715 134.209 247.024 134.209 246.232C134.209 245.449 134.355 244.76 134.646 244.163C134.941 243.567 135.352 243.101 135.879 242.766C136.41 242.432 137.03 242.264 137.739 242.264C138.17 242.264 138.587 242.335 138.992 242.478C139.396 242.621 139.759 242.844 140.08 243.149C140.402 243.454 140.655 243.85 140.841 244.337C141.027 244.821 141.119 245.41 141.119 246.102V246.629H135.049V245.516H139.663C139.663 245.125 139.583 244.778 139.424 244.477C139.265 244.172 139.041 243.931 138.753 243.756C138.468 243.58 138.133 243.492 137.749 243.492C137.331 243.492 136.967 243.595 136.655 243.8C136.347 244.003 136.108 244.268 135.939 244.596C135.773 244.921 135.691 245.274 135.691 245.655V246.525C135.691 247.035 135.78 247.469 135.959 247.827C136.141 248.185 136.395 248.459 136.72 248.648C137.044 248.833 137.424 248.926 137.858 248.926C138.14 248.926 138.397 248.886 138.629 248.807C138.861 248.724 139.061 248.601 139.23 248.439C139.399 248.277 139.529 248.076 139.618 247.837L141.025 248.091C140.912 248.505 140.71 248.868 140.419 249.18C140.13 249.488 139.767 249.728 139.33 249.901C138.896 250.07 138.4 250.154 137.843 250.154ZM142.769 250V242.364H144.206V243.577H144.285C144.424 243.166 144.67 242.843 145.021 242.607C145.376 242.369 145.777 242.249 146.224 242.249C146.317 242.249 146.426 242.253 146.552 242.259C146.681 242.266 146.783 242.274 146.855 242.284V243.706C146.796 243.689 146.69 243.671 146.537 243.651C146.385 243.628 146.232 243.616 146.08 243.616C145.729 243.616 145.415 243.691 145.14 243.84C144.868 243.986 144.653 244.19 144.494 244.452C144.335 244.71 144.255 245.005 144.255 245.337V250H142.769ZM152.227 242.364V243.557H147.912V242.364H152.227ZM149.095 250V241.479C149.095 241.001 149.2 240.605 149.408 240.29C149.617 239.972 149.894 239.735 150.239 239.58C150.583 239.42 150.958 239.341 151.362 239.341C151.661 239.341 151.916 239.366 152.128 239.415C152.34 239.462 152.497 239.505 152.6 239.545L152.252 240.748C152.183 240.728 152.093 240.705 151.984 240.678C151.874 240.648 151.742 240.634 151.586 240.634C151.225 240.634 150.966 240.723 150.81 240.902C150.658 241.081 150.582 241.339 150.582 241.678V250H149.095ZM156.677 250.154C155.961 250.154 155.336 249.99 154.803 249.662C154.269 249.334 153.855 248.875 153.56 248.285C153.265 247.695 153.117 247.005 153.117 246.217C153.117 245.424 153.265 244.732 153.56 244.138C153.855 243.545 154.269 243.085 154.803 242.756C155.336 242.428 155.961 242.264 156.677 242.264C157.393 242.264 158.018 242.428 158.551 242.756C159.085 243.085 159.499 243.545 159.794 244.138C160.089 244.732 160.237 245.424 160.237 246.217C160.237 247.005 160.089 247.695 159.794 248.285C159.499 248.875 159.085 249.334 158.551 249.662C158.018 249.99 157.393 250.154 156.677 250.154ZM156.682 248.906C157.146 248.906 157.53 248.784 157.835 248.538C158.14 248.293 158.366 247.967 158.511 247.559C158.661 247.151 158.735 246.702 158.735 246.212C158.735 245.724 158.661 245.277 158.511 244.869C158.366 244.458 158.14 244.129 157.835 243.88C157.53 243.631 157.146 243.507 156.682 243.507C156.214 243.507 155.827 243.631 155.518 243.88C155.214 244.129 154.987 244.458 154.837 244.869C154.692 245.277 154.619 245.724 154.619 246.212C154.619 246.702 154.692 247.151 154.837 247.559C154.987 247.967 155.214 248.293 155.518 248.538C155.827 248.784 156.214 248.906 156.682 248.906ZM161.896 250V242.364H163.333V243.577H163.412C163.551 243.166 163.797 242.843 164.148 242.607C164.503 242.369 164.904 242.249 165.351 242.249C165.444 242.249 165.553 242.253 165.679 242.259C165.808 242.266 165.91 242.274 165.982 242.284V243.706C165.923 243.689 165.817 243.671 165.664 243.651C165.512 243.628 165.359 243.616 165.207 243.616C164.856 243.616 164.542 243.691 164.267 243.84C163.995 243.986 163.78 244.19 163.621 244.452C163.462 244.71 163.382 245.005 163.382 245.337V250H161.896ZM167.269 250V242.364H168.696V243.607H168.79C168.949 243.186 169.209 242.857 169.571 242.622C169.932 242.384 170.364 242.264 170.868 242.264C171.379 242.264 171.806 242.384 172.151 242.622C172.499 242.861 172.756 243.189 172.922 243.607H173.001C173.183 243.199 173.473 242.874 173.871 242.632C174.269 242.387 174.743 242.264 175.293 242.264C175.986 242.264 176.551 242.481 176.988 242.915C177.429 243.35 177.65 244.004 177.65 244.879V250H176.163V245.018C176.163 244.501 176.022 244.127 175.74 243.895C175.459 243.663 175.122 243.547 174.731 243.547C174.247 243.547 173.871 243.696 173.603 243.994C173.334 244.289 173.2 244.669 173.2 245.133V250H171.718V244.924C171.718 244.51 171.589 244.177 171.331 243.925C171.072 243.673 170.736 243.547 170.321 243.547C170.04 243.547 169.779 243.621 169.541 243.771C169.306 243.916 169.115 244.12 168.969 244.382C168.827 244.644 168.755 244.947 168.755 245.292V250H167.269ZM181.864 250.169C181.38 250.169 180.943 250.08 180.552 249.901C180.161 249.718 179.851 249.455 179.622 249.11C179.397 248.765 179.284 248.343 179.284 247.842C179.284 247.411 179.367 247.057 179.532 246.778C179.698 246.5 179.922 246.28 180.204 246.117C180.485 245.955 180.8 245.832 181.148 245.749C181.496 245.666 181.851 245.603 182.212 245.56C182.67 245.507 183.041 245.464 183.326 245.431C183.611 245.395 183.818 245.337 183.947 245.257C184.077 245.178 184.141 245.048 184.141 244.869V244.835C184.141 244.4 184.019 244.064 183.773 243.825C183.531 243.587 183.17 243.467 182.689 243.467C182.189 243.467 181.795 243.578 181.506 243.8C181.221 244.019 181.024 244.263 180.915 244.531L179.518 244.213C179.683 243.749 179.925 243.375 180.243 243.089C180.565 242.801 180.934 242.592 181.352 242.463C181.77 242.33 182.209 242.264 182.67 242.264C182.974 242.264 183.298 242.301 183.639 242.374C183.984 242.443 184.305 242.572 184.604 242.761C184.905 242.95 185.152 243.22 185.344 243.572C185.537 243.92 185.633 244.372 185.633 244.929V250H184.181V248.956H184.121C184.025 249.148 183.881 249.337 183.689 249.523C183.497 249.708 183.25 249.862 182.948 249.985C182.646 250.108 182.285 250.169 181.864 250.169ZM182.187 248.976C182.598 248.976 182.95 248.895 183.241 248.732C183.536 248.57 183.76 248.358 183.912 248.096C184.068 247.831 184.146 247.547 184.146 247.246V246.261C184.093 246.314 183.99 246.364 183.838 246.411C183.689 246.454 183.518 246.492 183.326 246.525C183.134 246.555 182.946 246.583 182.764 246.609C182.582 246.633 182.429 246.652 182.307 246.669C182.018 246.705 181.755 246.767 181.516 246.853C181.281 246.939 181.092 247.063 180.949 247.226C180.81 247.385 180.741 247.597 180.741 247.862C180.741 248.23 180.876 248.509 181.148 248.697C181.42 248.883 181.766 248.976 182.187 248.976ZM189.099 245.466V250H187.613V242.364H189.039V243.607H189.134C189.31 243.202 189.585 242.877 189.959 242.632C190.337 242.387 190.813 242.264 191.386 242.264C191.906 242.264 192.362 242.374 192.753 242.592C193.144 242.808 193.448 243.129 193.663 243.557C193.878 243.984 193.986 244.513 193.986 245.143V250H192.5V245.322C192.5 244.768 192.355 244.336 192.067 244.024C191.779 243.709 191.383 243.552 190.879 243.552C190.534 243.552 190.228 243.626 189.959 243.776C189.694 243.925 189.484 244.143 189.328 244.432C189.175 244.717 189.099 245.062 189.099 245.466ZM199.196 250.154C198.457 250.154 197.821 249.987 197.287 249.652C196.757 249.314 196.349 248.848 196.064 248.255C195.779 247.662 195.637 246.982 195.637 246.217C195.637 245.441 195.783 244.757 196.074 244.163C196.366 243.567 196.777 243.101 197.307 242.766C197.837 242.432 198.462 242.264 199.181 242.264C199.761 242.264 200.279 242.372 200.733 242.587C201.187 242.799 201.553 243.098 201.831 243.482C202.113 243.867 202.28 244.316 202.333 244.83H200.887C200.807 244.472 200.625 244.163 200.34 243.905C200.058 243.646 199.68 243.517 199.206 243.517C198.792 243.517 198.429 243.626 198.118 243.845C197.809 244.061 197.569 244.369 197.397 244.77C197.224 245.168 197.138 245.638 197.138 246.182C197.138 246.739 197.223 247.219 197.392 247.624C197.561 248.028 197.799 248.341 198.108 248.563C198.419 248.785 198.785 248.896 199.206 248.896C199.488 248.896 199.743 248.845 199.972 248.742C200.204 248.636 200.398 248.485 200.554 248.29C200.713 248.094 200.824 247.859 200.887 247.584H202.333C202.28 248.078 202.12 248.518 201.851 248.906C201.583 249.294 201.223 249.599 200.772 249.821C200.325 250.043 199.8 250.154 199.196 250.154ZM207.214 250.154C206.462 250.154 205.814 249.993 205.27 249.672C204.73 249.347 204.313 248.891 204.018 248.305C203.726 247.715 203.58 247.024 203.58 246.232C203.58 245.449 203.726 244.76 204.018 244.163C204.313 243.567 204.724 243.101 205.251 242.766C205.781 242.432 206.401 242.264 207.11 242.264C207.541 242.264 207.958 242.335 208.363 242.478C208.767 242.621 209.13 242.844 209.452 243.149C209.773 243.454 210.027 243.85 210.212 244.337C210.398 244.821 210.491 245.41 210.491 246.102V246.629H204.42V245.516H209.034C209.034 245.125 208.954 244.778 208.795 244.477C208.636 244.172 208.412 243.931 208.124 243.756C207.839 243.58 207.504 243.492 207.12 243.492C206.702 243.492 206.338 243.595 206.026 243.8C205.718 244.003 205.479 244.268 205.31 244.596C205.144 244.921 205.062 245.274 205.062 245.655V246.525C205.062 247.035 205.151 247.469 205.33 247.827C205.512 248.185 205.766 248.459 206.091 248.648C206.416 248.833 206.795 248.926 207.229 248.926C207.511 248.926 207.768 248.886 208 248.807C208.232 248.724 208.432 248.601 208.601 248.439C208.77 248.277 208.9 248.076 208.989 247.837L210.396 248.091C210.283 248.505 210.081 248.868 209.79 249.18C209.501 249.488 209.138 249.728 208.701 249.901C208.267 250.07 207.771 250.154 207.214 250.154Z" fill="#11181C"/>
<rect x="41" y="233" width="24" height="24" rx="2" fill="#11181C"/>
<path d="M48.5 247.637V243.7C48.5 242.58 48.5 242.02 48.718 241.592C48.9097 241.216 49.2157 240.91 49.592 240.718C50.0198 240.5 50.5799 240.5 51.7 240.5H54.3C55.4201 240.5 55.9802 240.5 56.408 240.718C56.7843 240.91 57.0903 241.216 57.282 241.592C57.5 242.02 57.5 242.58 57.5 243.7V244.3C57.5 245.42 57.5 245.98 57.282 246.408C57.0903 246.784 56.7843 247.09 56.408 247.282C55.9802 247.5 55.4201 247.5 54.3 247.5H52.1796C51.929 247.5 51.8037 247.5 51.6861 247.529C51.5818 247.555 51.4824 247.597 51.3916 247.654C51.2892 247.719 51.2022 247.809 51.0281 247.989L50.5636 248.471C49.9185 249.139 49.596 249.473 49.3182 249.499C49.0772 249.521 48.8405 249.425 48.6823 249.242C48.5 249.031 48.5 248.566 48.5 247.637Z" fill="white"/>
<path d="M333 268H41V270H333V268Z" fill="#E8E8E8" mask="url(#path-60-inside-1_865_5573)"/>
<path d="M41 403.333C40.4477 403.333 40 403.781 40 404.333C40 404.886 40.4477 405.333 41 405.333V403.333ZM54.8484 404.333L55.5654 403.636C55.3771 403.443 55.1185 403.333 54.8484 403.333V404.333ZM71.2146 421.171L70.4975 421.868C70.6858 422.062 70.9444 422.171 71.2146 422.171V421.171ZM81.6009 421.171L82.1335 420.325C81.974 420.225 81.7893 420.171 81.6009 420.171V421.171ZM92.6166 428.105L92.0839 428.951C92.2434 429.051 92.4281 429.105 92.6166 429.105V428.105ZM123.461 428.105L124.227 427.463C124.037 427.236 123.757 427.105 123.461 427.105V428.105ZM132.588 439L131.821 439.642C132.004 439.86 132.271 439.99 132.556 439.999C132.84 440.009 133.115 439.896 133.312 439.69L132.588 439ZM142.974 428.105L143.752 427.476C143.571 427.252 143.302 427.117 143.015 427.106C142.727 427.094 142.449 427.207 142.25 427.415L142.974 428.105ZM151.787 439L151.009 439.629C151.199 439.864 151.485 440 151.787 440V439ZM161.544 439V440C161.822 440 162.089 439.884 162.278 439.679L161.544 439ZM171.615 428.105V427.105C171.336 427.105 171.07 427.221 170.881 427.426L171.615 428.105ZM180.742 428.105V429.105C181.008 429.105 181.262 428.999 181.45 428.811L180.742 428.105ZM187.667 421.171L188.099 420.27C187.716 420.086 187.259 420.164 186.959 420.465L187.667 421.171ZM202.144 428.105L202.922 427.476C202.829 427.36 202.71 427.267 202.576 427.203L202.144 428.105ZM210.957 439L210.18 439.629C210.369 439.864 210.655 440 210.957 440V439ZM244.634 439V440C244.924 440 245.2 439.874 245.389 439.655L244.634 439ZM254.076 428.105L254.832 428.76C254.952 428.621 255.031 428.452 255.062 428.271L254.076 428.105ZM255.667 387C255.667 389.946 258.054 392.333 261 392.333C263.946 392.333 266.333 389.946 266.333 387C266.333 384.054 263.946 381.667 261 381.667C258.054 381.667 255.667 384.054 255.667 387ZM41 405.333H54.8484V403.333H41V405.333ZM54.1313 405.03L70.4975 421.868L71.9317 420.474L55.5654 403.636L54.1313 405.03ZM71.2146 422.171H81.6009V420.171H71.2146V422.171ZM81.0682 422.018L92.0839 428.951L93.1493 427.258L82.1335 420.325L81.0682 422.018ZM92.6166 429.105H123.461V427.105H92.6166V429.105ZM122.694 428.747L131.821 439.642L133.355 438.358L124.227 427.463L122.694 428.747ZM133.312 439.69L143.698 428.795L142.25 427.415L131.864 438.31L133.312 439.69ZM142.197 428.734L151.009 439.629L152.564 438.371L143.752 427.476L142.197 428.734ZM151.787 440H161.544V438H151.787V440ZM162.278 439.679L172.349 428.784L170.881 427.426L160.809 438.321L162.278 439.679ZM171.615 429.105H180.742V427.105H171.615V429.105ZM181.45 428.811L188.374 421.878L186.959 420.465L180.035 427.398L181.45 428.811ZM187.235 422.073L201.713 429.007L202.576 427.203L188.099 420.27L187.235 422.073ZM201.367 428.734L210.18 439.629L211.735 438.371L202.922 427.476L201.367 428.734ZM210.957 440H244.634V438H210.957V440ZM245.389 439.655L254.832 428.76L253.32 427.45L243.878 438.345L245.389 439.655ZM255.062 428.271L261.986 387.166L260.014 386.834L253.09 427.939L255.062 428.271Z" fill="#C1C8CD"/>
<rect x="21.5" y="209.5" width="331" height="290" rx="5.5" stroke="#D3D7DB" shape-rendering="crispEdges"/>
</g>
<g filter="url(#filter2_d_865_5573)">
<path d="M402.108 62.712L406.666 46.7205C406.902 45.8948 406.044 45.1818 405.264 45.5548L390.161 52.7799C389.358 53.1641 389.419 54.3166 390.257 54.6138L396.469 56.8146C396.694 56.8945 396.884 57.0518 397.002 57.2581L400.268 62.9368C400.709 63.7036 401.865 63.5623 402.108 62.712Z" fill="#5753F7"/>
<path d="M407.15 46.8552L402.591 62.8467C402.227 64.1221 400.493 64.334 399.832 63.1838L396.566 57.5051C396.506 57.4019 396.412 57.3233 396.299 57.2833L390.088 55.0825C388.83 54.6368 388.739 52.9079 389.944 52.3317L405.046 45.1066C406.216 44.547 407.503 45.6166 407.15 46.8552Z" stroke="#5753F7"/>
</g>
<path d="M327 81C327 69.9543 335.954 61 347 61H377C388.046 61 397 69.9543 397 81V81C397 92.0457 388.046 101 377 101H347C335.954 101 327 92.0457 327 81V81Z" fill="#5753F7"/>
<path d="M348.801 75.3636H350.551V83.6136C350.551 84.3598 350.403 84.9981 350.108 85.5284C349.816 86.0587 349.405 86.464 348.875 86.7443C348.345 87.0208 347.723 87.1591 347.011 87.1591C346.356 87.1591 345.767 87.0398 345.244 86.8011C344.725 86.5625 344.314 86.2159 344.011 85.7614C343.712 85.303 343.562 84.7462 343.562 84.0909H345.307C345.307 84.4129 345.381 84.6913 345.528 84.9261C345.68 85.161 345.886 85.3447 346.148 85.4773C346.413 85.6061 346.716 85.6705 347.057 85.6705C347.428 85.6705 347.742 85.5928 348 85.4375C348.261 85.2784 348.46 85.0455 348.597 84.7386C348.733 84.4318 348.801 84.0568 348.801 83.6136V75.3636ZM356.646 87.1761C355.828 87.1761 355.114 86.9886 354.504 86.6136C353.894 86.2386 353.421 85.714 353.084 85.0398C352.747 84.3655 352.578 83.5777 352.578 82.6761C352.578 81.7708 352.747 80.9792 353.084 80.3011C353.421 79.6231 353.894 79.0966 354.504 78.7216C355.114 78.3466 355.828 78.1591 356.646 78.1591C357.464 78.1591 358.179 78.3466 358.788 78.7216C359.398 79.0966 359.872 79.6231 360.209 80.3011C360.546 80.9792 360.714 81.7708 360.714 82.6761C360.714 83.5777 360.546 84.3655 360.209 85.0398C359.872 85.714 359.398 86.2386 358.788 86.6136C358.179 86.9886 357.464 87.1761 356.646 87.1761ZM356.652 85.75C357.182 85.75 357.622 85.6098 357.97 85.3295C358.319 85.0492 358.576 84.6761 358.743 84.2102C358.913 83.7443 358.999 83.2311 358.999 82.6705C358.999 82.1136 358.913 81.6023 358.743 81.1364C358.576 80.6667 358.319 80.2898 357.97 80.0057C357.622 79.7216 357.182 79.5795 356.652 79.5795C356.118 79.5795 355.675 79.7216 355.322 80.0057C354.974 80.2898 354.714 80.6667 354.544 81.1364C354.377 81.6023 354.294 82.1136 354.294 82.6705C354.294 83.2311 354.377 83.7443 354.544 84.2102C354.714 84.6761 354.974 85.0492 355.322 85.3295C355.675 85.6098 356.118 85.75 356.652 85.75ZM364.31 81.8182V87H362.611V75.3636H364.287V79.6932H364.395C364.599 79.2235 364.912 78.8504 365.332 78.5739C365.753 78.2973 366.302 78.1591 366.98 78.1591C367.579 78.1591 368.101 78.2822 368.548 78.5284C368.999 78.7746 369.348 79.142 369.594 79.6307C369.844 80.1155 369.969 80.7216 369.969 81.4489V87H368.27V81.6534C368.27 81.0133 368.105 80.517 367.776 80.1648C367.446 79.8087 366.988 79.6307 366.401 79.6307C365.999 79.6307 365.639 79.7159 365.321 79.8864C365.007 80.0568 364.759 80.3068 364.577 80.6364C364.399 80.9621 364.31 81.3561 364.31 81.8182ZM373.935 81.8182V87H372.236V78.2727H373.866V79.6932H373.974C374.175 79.2311 374.49 78.8598 374.918 78.5795C375.349 78.2992 375.893 78.1591 376.548 78.1591C377.143 78.1591 377.664 78.2841 378.111 78.5341C378.558 78.7803 378.904 79.1477 379.151 79.6364C379.397 80.125 379.52 80.7292 379.52 81.4489V87H377.821V81.6534C377.821 81.0208 377.656 80.5265 377.327 80.1705C376.997 79.8106 376.545 79.6307 375.969 79.6307C375.575 79.6307 375.224 79.7159 374.918 79.8864C374.615 80.0568 374.374 80.3068 374.196 80.6364C374.022 80.9621 373.935 81.3561 373.935 81.8182Z" fill="white"/>
</g>
<defs>
<filter id="filter0_d_865_5573" x="109.167" y="27.416" width="15.6665" height="15.6667" filterUnits="userSpaceOnUse" color-interpolation-filters="sRGB">
<feFlood flood-opacity="0" result="BackgroundImageFix"/>
<feColorMatrix in="SourceAlpha" type="matrix" values="0 0 0 0 0 0 0 0 0 0 0 0 0 0 0 0 0 0 127 0" result="hardAlpha"/>
<feOffset dy="0.25"/>
<feGaussianBlur stdDeviation="0.25"/>
<feComposite in2="hardAlpha" operator="out"/>
<feColorMatrix type="matrix" values="0 0 0 0 0 0 0 0 0 0 0 0 0 0 0 0 0 0 0.2 0"/>
<feBlend mode="normal" in2="BackgroundImageFix" result="effect1_dropShadow_865_5573"/>
<feBlend mode="normal" in="SourceGraphic" in2="effect1_dropShadow_865_5573" result="shape"/>
</filter>
<filter id="filter1_d_865_5573" x="-6" y="194" width="386" height="345" filterUnits="userSpaceOnUse" color-interpolation-filters="sRGB">
<feFlood flood-opacity="0" result="BackgroundImageFix"/>
<feColorMatrix in="SourceAlpha" type="matrix" values="0 0 0 0 0 0 0 0 0 0 0 0 0 0 0 0 0 0 127 0" result="hardAlpha"/>
<feMorphology radius="5" operator="erode" in="SourceAlpha" result="effect1_dropShadow_865_5573"/>
<feOffset dy="12"/>
<feGaussianBlur stdDeviation="16"/>
<feComposite in2="hardAlpha" operator="out"/>
<feColorMatrix type="matrix" values="0 0 0 0 0.0666667 0 0 0 0 0.0941176 0 0 0 0 0.109804 0 0 0 0.16 0"/>
<feBlend mode="normal" in2="BackgroundImageFix" result="effect1_dropShadow_865_5573"/>
<feBlend mode="normal" in="SourceGraphic" in2="effect1_dropShadow_865_5573" result="shape"/>
</filter>
<filter id="filter2_d_865_5573" x="386.588" y="43.455" width="23.124" height="23.9794" filterUnits="userSpaceOnUse" color-interpolation-filters="sRGB">
<feFlood flood-opacity="0" result="BackgroundImageFix"/>
<feColorMatrix in="SourceAlpha" type="matrix" values="0 0 0 0 0 0 0 0 0 0 0 0 0 0 0 0 0 0 127 0" result="hardAlpha"/>
<feOffset dy="1"/>
<feGaussianBlur stdDeviation="1"/>
<feComposite in2="hardAlpha" operator="out"/>
<feColorMatrix type="matrix" values="0 0 0 0 0 0 0 0 0 0 0 0 0 0 0 0 0 0 0.08 0"/>
<feBlend mode="normal" in2="BackgroundImageFix" result="effect1_dropShadow_865_5573"/>
<feBlend mode="normal" in="SourceGraphic" in2="effect1_dropShadow_865_5573" result="shape"/>
</filter>
<linearGradient id="paint0_linear_865_5573" x1="105" y1="36.1043" x2="129.32" y2="36.1043" gradientUnits="userSpaceOnUse">
<stop stop-color="#7C54F7"/>
<stop offset="1" stop-color="#D5B0BE"/>
</linearGradient>
<linearGradient id="paint1_linear_865_5573" x1="105" y1="36.1043" x2="129.32" y2="36.1043" gradientUnits="userSpaceOnUse">
<stop stop-color="#7C54F7"/>
<stop offset="1" stop-color="#D5B0BE"/>
</linearGradient>
<linearGradient id="paint2_linear_865_5573" x1="117" y1="27.666" x2="117" y2="42.3327" gradientUnits="userSpaceOnUse">
<stop stop-color="white"/>
<stop offset="1" stop-color="white" stop-opacity="0.7"/>
</linearGradient>
<clipPath id="clip0_865_5573">
<rect width="486" height="520" fill="white"/>
</clipPath>
<clipPath id="clip1_865_5573">
<path d="M81 -1H487V402C487 405.314 484.314 408 481 408H87C83.6863 408 81 405.314 81 402V-1Z" fill="white"/>
</clipPath>
<clipPath id="clip2_865_5573">
<rect x="93" y="304" width="368" height="40" rx="6" fill="white"/>
</clipPath>
<clipPath id="clip3_865_5573">
<rect width="24" height="24" fill="white" transform="translate(105 23)"/>
</clipPath>
</defs>
</svg>
